<svg width="115" height="115" viewBox="0 0 115 115" fill="none" xmlns="http://www.w3.org/2000/svg">
<path d="M76.7092 76.5192C76.5267 76.6769 72.2505 80.4645 72.2505 87.4612V96.968C72.2505 98.0174 73.1003 98.8693 74.1518 98.8693C75.2032 98.8693 76.053 98.0174 76.053 96.968V87.4612C76.053 82.263 79.082 79.4984 79.2985 79.2987L92.6078 65.9895C93.3627 65.2346 94.3038 64.7974 95.2581 64.7593C96.2278 64.7174 97.0607 65.0673 97.7545 65.7593C98.4466 66.4534 98.7946 67.3166 98.7547 68.2557C98.7166 69.2102 98.2795 70.1514 97.5246 70.9061L88.0185 80.413C87.275 81.1565 87.275 82.3582 88.0185 83.1015C88.7618 83.845 89.9637 83.845 90.707 83.1015L100.214 73.5967C101.646 72.165 102.476 70.3227 102.556 68.4099C102.638 66.4115 101.889 64.514 100.444 63.0709C98.9987 61.6277 97.1258 60.8844 95.1028 60.9584C93.192 61.0381 91.3496 61.869 89.9198 63.3008L76.7092 76.5192Z" fill="black"/>
<path d="M20.9147 96.968C21.4016 96.968 21.8882 96.7817 22.259 96.411C23.0025 95.6674 23.0025 94.4658 22.259 93.7225L6.93994 78.4131C6.81249 78.301 3.80274 75.6161 3.80274 70.3495V41.8295C3.80274 39.7324 5.50815 38.0267 7.60548 38.0267C9.70259 38.0267 11.4082 39.7321 11.4082 41.8295V56.8822C11.4082 57.9317 12.258 58.7835 13.3095 58.7835C14.3609 58.7835 15.2107 57.9317 15.2107 56.8822V41.8295C15.2107 37.635 11.7997 34.2242 7.60548 34.2242C3.41104 34.224 0 37.635 0 41.8292V70.3493C0 77.4487 4.29516 81.1545 4.35977 81.2002L19.5705 96.411C19.9413 96.7817 20.4279 96.968 20.9147 96.968Z" fill="black"/>
<path d="M11.5241 68.4099C11.6039 70.3227 12.4347 72.165 13.8665 73.5948L23.3733 83.1015C24.1168 83.845 25.3184 83.845 26.0617 83.1015C26.805 82.358 26.805 81.1563 26.0617 80.413L16.555 70.9045C15.8001 70.1516 15.3629 69.2105 15.3248 68.2559C15.2849 67.3168 15.6328 66.4534 16.325 65.7595C17.0191 65.0675 17.8575 64.7177 18.8214 64.7596C19.7759 64.7977 20.7171 65.2348 21.4718 65.9897L34.8704 79.3827C34.9978 79.4988 38.0265 82.2633 38.0265 87.4615V96.968C38.0265 98.0175 38.8763 98.8693 39.9278 98.8693C40.9792 98.8693 41.829 98.0175 41.829 96.968V87.4613C41.829 80.4643 37.553 76.6769 37.4693 76.6103L24.1602 63.301C22.7304 61.8692 20.888 61.0384 18.9772 60.9586C16.9465 60.8882 15.0795 61.6279 13.6364 63.0711C12.1914 64.5142 11.4423 66.4117 11.5241 68.4099Z" fill="black"/>
<path d="M57.04 24.7173C59.1371 24.7173 60.8427 26.4227 60.8427 28.52C60.8427 29.5694 61.6925 30.4213 62.744 30.4213C63.7955 30.4213 64.6453 29.5694 64.6453 28.52C64.6453 24.9873 62.2135 22.0346 58.9413 21.1846V20.9145C58.9413 19.8651 58.0914 19.0133 57.04 19.0133C55.9885 19.0133 55.1387 19.8651 55.1387 20.9145V21.1846C51.8665 22.0344 49.4347 24.9873 49.4347 28.52C49.4347 32.7144 52.8458 36.1253 57.04 36.1253C59.1371 36.1253 60.8427 37.8307 60.8427 39.928C60.8427 42.0253 59.1373 43.7307 57.04 43.7307C54.9429 43.7307 53.2373 42.0253 53.2373 39.928C53.2373 38.8786 52.3874 38.0267 51.336 38.0267C50.2845 38.0267 49.4347 38.8786 49.4347 39.928C49.4347 43.4607 51.8665 46.4134 55.1387 47.2634V47.5335C55.1387 48.5829 55.9885 49.4347 57.04 49.4347C58.0914 49.4347 58.9413 48.5829 58.9413 47.5335V47.2634C62.2135 46.4136 64.6453 43.4607 64.6453 39.928C64.6453 35.7336 61.2342 32.3227 57.04 32.3227C54.9429 32.3227 53.2373 30.6173 53.2373 28.52C53.2373 26.4229 54.9429 24.7173 57.04 24.7173Z" fill="#FAC213"/>
<path d="M43.7307 102.672H13.3093C12.2578 102.672 11.408 103.524 11.408 104.573V112.179C11.408 113.228 12.2578 114.08 13.3093 114.08C14.3607 114.08 15.2105 113.228 15.2105 112.179V106.475H41.8293V112.179C41.8293 113.228 42.6791 114.08 43.7305 114.08C44.782 114.08 45.6318 113.228 45.6318 112.179V104.573C45.632 103.524 44.7822 102.672 43.7307 102.672Z" fill="black"/>
<path d="M100.771 102.672H70.3493C69.2978 102.672 68.448 103.524 68.448 104.573V112.179C68.448 113.228 69.2978 114.08 70.3493 114.08C71.4007 114.08 72.2505 113.228 72.2505 112.179V106.475H98.8693V112.179C98.8693 113.228 99.7191 114.08 100.771 114.08C101.822 114.08 102.672 113.228 102.672 112.179V104.573C102.672 103.524 101.822 102.672 100.771 102.672Z" fill="black"/>
<path d="M57.04 7.60526C42.3618 7.60526 30.4213 19.5456 30.4213 34.224C30.4213 48.9024 42.3618 60.8427 57.04 60.8427C71.7182 60.8427 83.6587 48.9022 83.6587 34.224C83.6587 19.5458 71.7182 7.60526 57.04 7.60526ZM57.04 57.04C44.4589 57.04 34.224 46.8051 34.224 34.224C34.224 21.6429 44.4589 11.408 57.04 11.408C69.6211 11.408 79.856 21.6429 79.856 34.224C79.856 46.8051 69.6211 57.04 57.04 57.04Z" fill="#FAC213"/>
<path d="M106.475 34.224C102.28 34.224 98.8695 37.635 98.8695 41.8293V56.882C98.8695 57.9315 99.7193 58.7833 100.771 58.7833C101.822 58.7833 102.672 57.9315 102.672 56.882V41.8293C102.672 39.7321 104.377 38.0265 106.475 38.0265C108.572 38.0265 110.277 39.7319 110.277 41.8293V70.3493C110.277 75.6159 107.268 78.3005 107.032 78.5118L91.821 93.7225C91.0775 94.466 91.0775 95.6677 91.821 96.411C92.1918 96.7817 92.6786 96.968 93.1653 96.968C93.6521 96.968 94.1387 96.7817 94.5095 96.411L109.602 81.3087C109.785 81.1548 114.08 77.449 114.08 70.3495V41.8295C114.08 37.635 110.669 34.224 106.475 34.224Z" fill="black"/>
<path d="M91.264 34.224C91.264 15.3533 75.9107 0 57.04 0C38.1694 0 22.816 15.3533 22.816 34.224C22.816 53.0947 38.1694 68.448 57.04 68.448C75.9107 68.448 91.264 53.0947 91.264 34.224ZM57.04 64.6453C40.2665 64.6453 26.6188 50.9976 26.6188 34.224C26.6188 17.4505 40.2665 3.80274 57.04 3.80274C73.8136 3.80274 87.4613 17.4505 87.4613 34.224C87.4613 50.9976 73.8136 64.6453 57.04 64.6453Z" fill="#FAC213"/>
</svg>
