<svg width="137" height="115" viewBox="0 0 137 115" fill="none" xmlns="http://www.w3.org/2000/svg">
<path d="M83.3708 70.2007H50.4611V68.0065C50.4611 61.4927 48.1508 55.1563 43.7806 49.5552C38.6775 43.0217 36.4726 34.8469 37.5739 26.5362C39.3885 12.8262 50.6895 1.74899 64.4458 0.195544C73.1866 -0.789693 81.9559 1.97927 88.4697 7.79755C94.99 13.6205 98.7288 21.9728 98.7288 30.7093C98.7288 37.7235 96.4185 44.3271 92.0483 49.8056C87.8687 55.0515 85.565 61.4688 85.565 67.8708V70.065L83.3708 70.2007Z" fill="#F9BA48"/>
<path d="M122.954 83.3729C123.389 77.6599 125.611 72.041 129.347 67.355C133.716 61.8765 136.026 55.2752 136.026 48.261C136.026 39.5245 132.287 31.1722 125.767 25.3493C119.253 19.5286 110.494 16.7578 101.743 17.7496C99.911 17.956 98.1142 18.3922 96.3413 18.9342C96.9029 20.2836 97.3592 21.6699 97.7234 23.0895C99.2043 22.6421 100.705 22.2822 102.234 22.109C109.867 21.2422 117.177 23.5613 122.842 28.6204C128.432 33.614 131.638 40.7728 131.638 48.261C131.638 54.2703 129.659 59.9261 125.918 64.6216C121.585 70.0537 119.009 76.6026 118.55 83.3645H116.28V54.8427H114.085H111.891H107.503V52.6485H114.085V48.2606H108.166L117.964 36.5009L114.594 33.6926L105.31 44.834L98.2088 36.3104C97.8863 38.0698 97.4056 39.7857 96.7803 41.451L102.454 48.261H96.5346V52.649H103.117V54.8432H98.7288H96.5346H94.3404V83.365H89.9524H89.549C89.7947 82.676 89.9524 81.9435 89.9524 81.1708C89.9524 79.9927 89.6168 78.9021 89.0725 77.9436C90.9133 76.7763 92.1462 74.7314 92.1462 72.3949C92.1462 68.7661 89.1933 65.8128 85.564 65.8128H78.9828V37.2915C78.9828 32.4514 75.047 28.5156 70.207 28.5156H65.819C63.3993 28.5156 61.4311 26.5475 61.4311 24.1277C61.4311 21.7079 63.3993 19.7397 65.819 19.7397H70.207C72.6268 19.7397 74.5949 21.7079 74.5949 24.1277H78.9828C78.9828 19.2876 75.047 15.3518 70.207 15.3518V10.9639H65.819V15.3518C60.979 15.3518 57.0432 19.2876 57.0432 24.1277C57.0432 28.9677 60.979 32.9035 65.819 32.9035H70.207C72.6268 32.9035 74.5949 34.8717 74.5949 37.2915C74.5949 39.7112 72.6268 41.6794 70.207 41.6794H65.819C63.3993 41.6794 61.4311 39.7112 61.4311 37.2915H57.0432V65.8128H50.4611C46.8323 65.8128 43.8789 68.7657 43.8789 72.3949C43.8789 74.7314 45.1118 76.7763 46.9526 77.9436C46.4082 78.9021 46.0727 79.9927 46.0727 81.1708C46.0727 81.943 46.2309 82.676 46.4766 83.365H46.0727H41.6847V58.9592C41.834 58.8056 41.9965 58.6629 42.1411 58.5028L38.8765 55.5714C36.7876 57.8972 33.815 59.2311 30.7147 59.2311C27.1449 59.2311 23.9991 57.4914 21.9959 54.8432H32.9089V50.4552H19.9674C19.8228 49.7466 19.746 49.0118 19.746 48.2615C19.746 47.5112 19.8228 46.7764 19.9674 46.0673H32.9098V41.6794H21.9968C24.002 39.0312 27.1482 37.2915 30.7156 37.2915C33.8155 37.2915 36.7885 38.6254 38.875 40.9511L39.0309 40.8107C38.3246 38.7878 37.8397 36.6928 37.572 34.5534C35.4593 33.4937 33.1204 32.9035 30.7161 32.9035C24.6057 32.9035 19.3318 36.4995 16.861 41.6794H13.1644V46.0673H15.5341C15.4311 46.7867 15.3586 47.5154 15.3586 48.2615C15.3586 49.0076 15.4311 49.7359 15.5341 50.4552H13.1644V54.8432H16.861C17.5958 56.3812 18.5679 57.783 19.746 58.9896V83.3645H17.4839C17.0384 76.7014 14.4543 70.1876 9.94092 64.4086C5.57078 58.8094 3.68362 51.7957 4.6272 44.6627C6.18064 32.925 15.8603 23.4406 27.6419 22.109C31.2576 21.6966 34.8138 22.0673 38.2605 23.1139C38.6246 21.6901 39.0744 20.2967 39.6384 18.9543C35.5861 17.7084 31.3999 17.2694 27.1482 17.7477C13.3918 19.3007 2.0932 30.3779 0.276242 44.0856C-0.822729 52.3986 1.37989 60.5735 6.48066 67.1092C10.3617 72.0785 12.6083 77.6337 13.0647 83.3752C9.48177 83.4277 6.58129 86.3501 6.58129 89.9461C6.58129 92.2826 7.81412 94.3275 9.65495 95.4948C9.11061 96.4534 8.77502 97.5439 8.77502 98.722C8.77502 101.058 10.0079 103.103 11.8487 104.271C11.3043 105.229 10.9688 106.32 10.9688 107.498C10.9688 111.127 13.9217 114.08 17.5509 114.08H43.8785C47.5072 114.08 50.4606 111.127 50.4606 107.498C50.4606 106.32 50.125 105.229 49.5807 104.271C51.4215 103.103 52.6543 101.058 52.6543 98.722C52.6543 97.6712 52.3777 96.6949 51.9326 95.8173C52.8167 96.2582 53.7973 96.5283 54.8485 96.5283H81.1761C82.2269 96.5283 83.2079 96.2582 84.092 95.8173C83.6464 96.6972 83.3703 97.6712 83.3703 98.722C83.3703 101.058 84.6031 103.103 86.444 104.271C85.8996 105.229 85.564 106.32 85.564 107.498C85.564 111.127 88.5169 114.08 92.1462 114.08H118.474C122.103 114.08 125.056 111.127 125.056 107.498C125.056 106.32 124.72 105.229 124.176 104.271C126.017 103.103 127.25 101.058 127.25 98.722C127.25 97.5439 126.914 96.4534 126.37 95.4948C128.21 94.3275 129.443 92.2826 129.443 89.9461C129.444 86.3483 126.539 83.4235 122.954 83.3729ZM98.7283 59.2306H103.116V63.6186H107.504V59.2306H111.892V83.3645H98.7283V59.2306ZM61.4311 44.8471C62.7276 45.6016 64.2132 46.0668 65.819 46.0668V50.4548H70.207V46.0668C71.8128 46.0668 73.2984 45.6016 74.5949 44.8471V65.8128H61.4311V44.8471ZM24.1335 62.1157C26.132 63.07 28.3567 63.6186 30.7151 63.6186C33.0146 63.6186 35.2566 63.0831 37.2973 62.1091V83.364H24.1335V62.1157ZM43.8794 109.692H17.5518C16.3429 109.692 15.3576 108.707 15.3576 107.498C15.3576 106.289 16.3429 105.304 17.5518 105.304H43.8794C45.0884 105.304 46.0736 106.289 46.0736 107.498C46.0731 108.707 45.0884 109.692 43.8794 109.692ZM46.0731 100.916H43.8794H17.5518H15.3576C14.1487 100.916 13.1634 99.931 13.1634 98.722C13.1634 97.513 14.1487 96.5278 15.3576 96.5278H46.0731C47.2821 96.5278 48.2673 97.513 48.2673 98.722C48.2673 99.931 47.2821 100.916 46.0731 100.916ZM48.6553 92.0874C48.5304 92.1118 48.4096 92.1399 48.2669 92.1399H46.0727H15.3576H13.1634C11.9545 92.1399 10.9692 91.1546 10.9692 89.9457C10.9692 88.7367 11.9545 87.7515 13.1634 87.7515H46.0731H48.2673C48.4101 87.7515 48.5308 87.78 48.6558 87.8044C48.4208 88.4802 48.2673 89.1931 48.2673 89.9457C48.2673 90.6988 48.4208 91.4116 48.6553 92.0874ZM81.1766 92.1403H54.849C53.64 92.1403 52.6548 91.1551 52.6548 89.9461C52.6548 88.7372 53.64 87.7519 54.849 87.7519H81.1766C82.3855 87.7519 83.3708 88.7372 83.3708 89.9461C83.3708 91.1551 82.3855 92.1403 81.1766 92.1403ZM83.3708 83.3645H81.1766H54.849H52.6553C51.4463 83.3645 50.4611 82.3792 50.4611 81.1703C50.4611 79.9613 51.4463 78.9761 52.6553 78.9761H83.3708C84.5797 78.9761 85.565 79.9613 85.565 81.1703C85.5645 82.3792 84.5797 83.3645 83.3708 83.3645ZM85.5645 74.5886H83.3703H52.6553H50.4611C49.2521 74.5886 48.2669 73.6034 48.2669 72.3944C48.2669 71.1855 49.2521 70.2002 50.4611 70.2002H85.5645C86.7735 70.2002 87.7587 71.1855 87.7587 72.3944C87.7587 73.6034 86.7735 74.5886 85.5645 74.5886ZM118.474 109.692H92.1466C90.9377 109.692 89.9524 108.707 89.9524 107.498C89.9524 106.289 90.9377 105.304 92.1466 105.304H118.474C119.683 105.304 120.668 106.289 120.668 107.498C120.668 108.707 119.683 109.692 118.474 109.692ZM120.668 100.916H118.474H92.1462H89.952C88.743 100.916 87.7578 99.931 87.7578 98.722C87.7578 97.513 88.743 96.5278 89.952 96.5278H120.667C121.876 96.5278 122.862 97.513 122.862 98.722C122.862 99.931 121.877 100.916 120.668 100.916ZM122.862 92.1403H120.668H89.9524H87.7587C87.6159 92.1403 87.4952 92.1118 87.3702 92.0879C87.6052 91.4121 87.7587 90.6992 87.7587 89.9466C87.7587 89.194 87.6052 88.4812 87.3702 87.8053C87.4952 87.781 87.6159 87.7524 87.7587 87.7524H120.668H122.863C124.072 87.7524 125.057 88.7376 125.057 89.9466C125.056 91.1551 124.071 92.1403 122.862 92.1403Z" fill="white"/>
</svg>
