<svg width="123" height="123" viewBox="0 0 123 123" fill="none" xmlns="http://www.w3.org/2000/svg">
<path d="M72.4543 15.0324C72.4543 17.5678 73.5793 20.1396 75.3311 21.7133C77.3512 21.3633 78.8948 17.8061 78.8948 17.8061H83.1885C83.1885 19.9529 82.0635 22.2865 80.3117 23.8579C80.5565 23.8794 80.7926 23.7742 81.0416 23.7742C85.7775 23.7742 89.6289 19.8455 89.6289 15.1075C89.6289 10.3695 85.7775 6.48157 81.0416 6.48157C76.3057 6.48371 72.4543 10.2943 72.4543 15.0324Z" fill="#F8CF26"/>
<path d="M5.90283 40.7943C5.90283 45.5301 9.75423 49.3815 14.4901 49.3815C14.7392 49.3815 14.9753 49.6435 15.22 49.622C13.4682 48.0484 12.3433 45.7148 12.3433 43.5679H16.6369C16.6369 43.5679 18.1805 47.1252 20.2007 47.473C21.9525 45.8994 23.0774 43.4842 23.0774 40.9488C23.0774 36.2129 19.226 32.2821 14.4901 32.2821C9.75423 32.2843 5.90283 36.0562 5.90283 40.7943Z" fill="#F8CF26"/>
<path d="M83.726 27.9133C90.8299 27.9133 96.607 22.1363 96.607 15.0324C96.607 7.92859 90.8299 2.15149 83.726 2.15149C76.6222 2.15149 70.8451 7.92859 70.8451 15.0324C70.8451 22.1363 76.6222 27.9133 83.726 27.9133ZM83.726 6.44299C88.4619 6.44299 92.3133 10.2944 92.3133 15.0303C92.3133 19.7662 88.4619 23.6176 83.726 23.6176C83.4748 23.6176 83.2408 23.8795 82.9961 23.858C84.7479 22.2865 85.8728 19.9529 85.8728 17.8061H81.5792C81.5792 17.8061 80.0356 21.3634 78.0155 21.7112C76.2637 20.1397 75.1387 17.7245 75.1387 15.1891C75.1387 10.4532 78.9901 6.44299 83.726 6.44299Z" fill="black"/>
<path d="M17.1746 53.6752C24.2784 53.6752 30.0555 47.8981 30.0555 40.7943C30.0555 33.6904 24.2784 27.9133 17.1746 27.9133C10.0707 27.9133 4.29364 33.6904 4.29364 40.7943C4.29364 47.8981 10.0707 53.6752 17.1746 53.6752ZM17.1746 32.207C21.9105 32.207 25.7619 36.0584 25.7619 40.7943C25.7619 43.3297 24.6369 45.9016 22.8851 47.4752C20.865 47.1252 19.3214 43.568 19.3214 43.568H15.0277C15.0277 45.7148 16.1527 48.0484 17.9045 49.6198C17.6598 49.6413 17.4236 49.5361 17.1746 49.5361C12.4387 49.5361 8.58728 45.6074 8.58728 40.8694C8.58728 36.1314 12.4387 32.207 17.1746 32.207Z" fill="black"/>
<path d="M120.9 4.40779L108.019 0.114147C107.36 -0.111269 106.646 0.00251251 106.085 0.408262C105.525 0.814011 105.194 1.4602 105.194 2.14933V19.3239V30.687H75.1388C74.6364 30.687 74.1491 30.5496 73.7626 30.8695L60.8817 41.4469C60.6563 41.638 60.4695 41.7947 60.3364 42.0587L54.248 54.199L40.693 59.9869L28.5871 56.2578C28.3681 56.1827 28.1384 56.4489 27.9087 56.4489H10.7341C4.81532 56.4489 0 60.6373 0 66.5561V90.1712C0 91.3562 0.959629 92.9449 2.14682 92.9449H8.58729V118.707H0V123H10.7341H21.4682H30.0555C31.2427 123 32.2023 121.412 32.2023 120.227V110.119H36.496H47.2301H62.2578C63.445 110.119 64.4047 108.531 64.4047 107.346V97.2385H77.2856H88.0197C89.2069 97.2385 90.1665 95.6499 90.1665 94.4648V84.3576H103.047H113.782H120.222V80.0639H115.928V62.2625C115.928 56.3437 111.113 52.1553 105.194 52.1553H96.607V43.568H107.341C113.26 43.568 118.075 38.1236 118.075 32.207V19.3261C118.075 18.1389 117.116 17.8061 115.928 17.8061H109.488V12.2845L120.9 8.48031C121.778 8.18834 122.369 7.36826 122.369 6.44298C122.369 5.5177 121.778 4.69976 120.9 4.40779ZM86.9957 34.3538L85.8729 37.1597L84.7501 34.3517H86.9957V34.3538ZM30.0555 105.826C28.8683 105.826 27.9087 106.159 27.9087 107.346V118.707H23.615V92.9449H34.3491V105.826H30.0555ZM38.6428 105.826V90.1712C38.6428 88.984 37.6832 88.6512 36.496 88.6512H21.4682C20.281 88.6512 19.3214 88.984 19.3214 90.1712V118.707H12.8809V69.3298H8.58729V88.6512H4.29364V66.5561C4.29364 63.0031 7.18327 60.7425 10.7341 60.7425H17.1746V75.7703H21.4682V60.7425H27.5609L40.1112 64.6111C40.6093 64.7807 41.1546 64.5961 41.6355 64.3921L55.0209 58.5785L56.324 60.4935L56.9745 61.451L42.5736 68.6407L28.2114 66.584C27.5952 66.4917 26.9705 66.6785 26.5004 67.0843C26.0324 67.49 25.7619 68.0782 25.7619 68.703V79.4371C25.7619 80.6221 26.7215 82.2108 27.9087 82.2108H38.6428C42.1936 82.2108 45.0833 84.4714 45.0833 88.0244V105.826H38.6428ZM62.2578 92.9449C61.0706 92.9449 60.111 93.2776 60.111 94.4648V105.826H49.3769V88.0244C49.3769 82.1056 44.5616 77.9171 38.6428 77.9171H30.0555V71.1782L42.6316 72.9751C43.0652 73.0352 43.5032 72.9622 43.8961 72.769L61.0706 64.1817C61.3841 64.025 61.631 63.7867 61.8306 63.5098C61.8478 63.4862 61.88 63.4776 61.8972 63.454L70.2805 50.88L75.1388 47.2347V92.9449H62.2578ZM100.901 80.0639H90.1665V67.183H100.901V80.0639ZM113.782 32.207C113.782 35.7578 110.892 39.2743 107.341 39.2743H94.4602C93.273 39.2743 92.3133 39.6071 92.3133 40.7943V53.6752C92.3133 54.8602 93.273 56.4489 94.4602 56.4489H105.194C108.745 56.4489 111.635 58.7095 111.635 62.2625V80.0639H105.194V64.4093C105.194 63.2221 104.235 62.8894 103.047 62.8894H88.0197C86.8325 62.8894 85.8729 63.2221 85.8729 64.4093V81.5839V92.9449H79.4324V42.9411C79.4324 42.1274 78.973 41.3846 78.2452 41.0197C77.5196 40.659 76.6458 40.7342 75.9975 41.2236L67.4102 47.6641C67.2148 47.8079 67.0452 47.9861 66.9121 48.1901L60.111 58.3918L58.2948 55.6653L63.9753 44.6156L75.9159 34.9807H80.1258L83.8785 44.051C84.2048 44.8668 84.9948 45.2446 85.8729 45.2446C86.7509 45.2446 87.5388 44.9462 87.8673 44.1304L91.6199 34.9807H107.341C108.528 34.9807 109.488 33.392 109.488 32.207V22.0997H113.782V32.207ZM109.488 7.75898V5.12912L113.434 6.44298L109.488 7.75898Z" fill="black"/>
<path d="M55.8174 10.7366H51.5237V15.0302H55.8174V10.7366Z" fill="black"/>
<path d="M47.2301 10.7366H42.9365V15.0302H47.2301V10.7366Z" fill="black"/>
<path d="M38.6428 10.7366H34.3491V15.0302H38.6428V10.7366Z" fill="black"/>
</svg>
