<svg width="115" height="115" viewBox="0 0 115 115" fill="none" xmlns="http://www.w3.org/2000/svg">
<g clip-path="url(#clip0_71_1080)">
<path d="M99.36 77.28H96.8668C100.626 74.2422 103.04 69.5998 103.04 64.4V57.04C103.04 49.9394 97.2606 44.16 90.16 44.16H82.8C82.1744 44.16 81.5635 44.2207 80.96 44.3072V11.04H84.64V0H0V11.04H3.68V64.4H0V75.44H43.0229L52.2229 93.84H69.92V114.08H114.08V92C114.08 83.8838 107.476 77.28 99.36 77.28ZM97.1943 85.4054L89.7258 88.607L94.8244 80.96H96.083L97.1943 85.4054ZM82.5571 80.96H90.4029L86.48 86.8425L82.5571 80.96ZM83.2306 88.607L75.762 85.4054L76.8752 80.96H78.1338L83.2306 88.607ZM99.3618 64.4C99.36 71.5006 93.5806 77.28 86.48 77.28C79.3794 77.28 73.6 71.5006 73.6 64.4H82.2075C85.4551 64.4 88.5077 63.1341 90.8022 60.8396L91.7516 59.8902C93.6615 62.2527 96.3774 63.7854 99.3618 64.2418V64.4ZM11.04 44.16V60.72H35.6905C35.7199 60.7844 35.731 60.8543 35.7622 60.9169L37.5029 64.4H7.36V11.04H77.28V45.4204C72.9358 47.4922 69.92 51.9156 69.92 57.04V64.4H54.9553L49.2476 53.6986C47.9246 51.2201 45.3578 49.68 42.55 49.68C40.2408 49.68 38.1929 50.7398 36.8 52.3738V44.16H11.04ZM33.12 47.84V57.04H14.72V47.84H33.12ZM82.8 47.84H90.16C95.2329 47.84 99.36 51.9671 99.36 57.04V60.5066C97.2514 60.0392 95.3764 58.7862 94.1491 56.9462L92.2852 54.1512L88.1986 58.2378C86.5978 59.8386 84.4707 60.72 82.2075 60.72H73.6V57.04C73.6 51.9671 77.7271 47.84 82.8 47.84ZM3.68 3.68H80.96V7.36H3.68V3.68ZM3.68 71.76V68.08H39.3429L41.1829 71.76H3.68ZM58.88 90.16H54.4971L39.054 59.2738C38.7835 58.731 38.64 58.1256 38.64 57.5239V57.27C38.64 55.1135 40.3935 53.36 42.55 53.36C43.9962 53.36 45.3192 54.1549 46 55.43L58.88 79.5782V90.16ZM56.9167 68.08H70.3469C70.6413 69.3717 71.0902 70.6026 71.668 71.76H58.88L56.9167 68.08ZM60.8433 75.44H74.1722C74.7666 76.1006 75.4032 76.7206 76.095 77.28H61.824L60.8433 75.44ZM110.4 110.4H103.04V103.04H110.4V110.4ZM110.4 99.36H103.04V92H99.36V110.4H73.6V90.16H62.56V80.96H73.0848L71.4362 87.5546L86.48 94.0019L101.526 87.5546L99.8826 80.9858C105.726 81.2618 110.4 86.0881 110.4 92V99.36Z" fill="black"/>
<path d="M36.8 29.44V25.76H32.9342C32.695 24.5879 32.2276 23.4986 31.5873 22.5345L34.3289 19.7929L31.7271 17.1911L28.9855 19.9327C28.0214 19.2924 26.9321 18.825 25.76 18.5858V14.72H22.08V18.5858C20.9079 18.825 19.8186 19.2924 18.8545 19.9327L16.1129 17.1911L13.5111 19.7929L16.2527 22.5345C15.6124 23.4986 15.145 24.5879 14.9058 25.76H11.04V29.44H14.9058C15.145 30.6121 15.6124 31.7013 16.2527 32.6655L13.5111 35.4071L16.1129 38.0089L18.8545 35.2673C19.8186 35.9076 20.9079 36.3749 22.08 36.6141V40.48H25.76V36.6141C26.9321 36.3749 28.0214 35.9076 28.9855 35.2673L31.7271 38.0089L34.3289 35.4071L31.5873 32.6655C32.2276 31.7013 32.695 30.6121 32.9342 29.44H36.8ZM23.92 33.12C20.8766 33.12 18.4 30.6433 18.4 27.6C18.4 24.5566 20.8766 22.08 23.92 22.08C26.9634 22.08 29.44 24.5566 29.44 27.6C29.44 30.6433 26.9634 33.12 23.92 33.12Z" fill="#FAC213"/>
<path d="M56.1844 18.4H62.56V14.72H54.2156L46.8556 25.76H40.48V29.44H48.8244L56.1844 18.4Z" fill="#FAC213"/>
<path d="M73.6 14.72H66.24V18.4H73.6V14.72Z" fill="#FAC213"/>
<path d="M51.52 33.12H40.48V44.16H51.52V33.12ZM47.84 40.48H44.16V36.8H47.84V40.48Z" fill="#FAC213"/>
<path d="M62.56 36.8H55.2V40.48H62.56V36.8Z" fill="#FAC213"/>
<path d="M73.6 36.8H66.24V40.48H73.6V36.8Z" fill="#FAC213"/>
</g>
<defs>
<clipPath id="clip0_71_1080">
<rect width="114.08" height="114.08" fill="white"/>
</clipPath>
</defs>
</svg>
