<svg width="114" height="115" viewBox="0 0 114 115" fill="none" xmlns="http://www.w3.org/2000/svg">
<path d="M84.1092 64.8125C84.1092 72.0852 81.2201 79.0601 76.0775 84.2027C70.9349 89.3453 63.96 92.2344 56.6873 92.2344C49.4146 92.2344 42.4397 89.3453 37.2971 84.2027C32.1545 79.0601 29.2654 72.0852 29.2654 64.8125" fill="#201D1F"/>
<path d="M74.9685 64.8125C74.9685 69.661 73.0425 74.3109 69.6141 77.7393C66.1857 81.1677 61.5358 83.0938 56.6873 83.0938C51.8388 83.0938 47.1889 81.1677 43.7605 77.7393C40.3321 74.3109 38.406 69.661 38.406 64.8125" fill="#F4ECCE"/>
<path d="M51.2029 0.828125H40.2342V8.14062H51.2029V0.828125Z" fill="#F4ECCE"/>
<path d="M38.406 37.3906H7.32791V62.9844H38.406V37.3906Z" fill="#FAC213"/>
<path d="M53.531 35.5625V34.2344H103.719V62.4844H54.8592H53.031H37.1124L40.7019 8.64062H50.7351L52.5321 35.5958L53.531 35.5625Z" stroke="white"/>
<path d="M73.1404 26.4219L74.9685 8.14062H82.281L84.1092 26.4219" fill="white"/>
<path d="M89.5935 26.4219L91.4217 8.14062H98.7342L100.562 26.4219" fill="white"/>
<path d="M56.6873 26.4219L58.5154 8.14062H65.8279L67.656 26.4219" fill="white"/>
<path d="M100.562 26.4219H56.6873C53.6583 26.4219 51.2029 28.8773 51.2029 31.9062C51.2029 34.9352 53.6583 37.3906 56.6873 37.3906H100.562C103.591 37.3906 106.047 34.9352 106.047 31.9062C106.047 28.8773 103.591 26.4219 100.562 26.4219Z" fill="#FAC213"/>
<path d="M111.531 61.1562H1.84354V64.8125H111.531V61.1562Z" fill="white"/>
<path d="M10.9842 37.3906L12.8123 19.1094H20.1248L21.9529 37.3906" fill="white"/>
<path d="M67.656 44.7031H60.3435V55.6719H67.656V44.7031Z" fill="white"/>
<path d="M96.906 44.7031H89.5935V55.6719H96.906V44.7031Z" fill="white"/>
<path d="M82.281 44.7031H74.9685V55.6719H82.281V44.7031Z" fill="white"/>
<path d="M16.4685 42.875H12.8123V46.5312H16.4685V42.875Z" fill="#201D1F"/>
<path d="M23.781 42.875H20.1248V46.5312H23.781V42.875Z" fill="#201D1F"/>
<path d="M31.0935 42.875H27.4373V46.5312H31.0935V42.875Z" fill="#201D1F"/>
<path d="M16.4685 50.1875H12.8123V53.8438H16.4685V50.1875Z" fill="#201D1F"/>
<path d="M23.781 50.1875H20.1248V53.8438H23.781V50.1875Z" fill="#201D1F"/>
<path d="M31.0935 50.1875H27.4373V53.8438H31.0935V50.1875Z" fill="#201D1F"/>
<path d="M56.6873 112.344C58.7066 112.344 60.3435 110.707 60.3435 108.688C60.3435 106.668 58.7066 105.031 56.6873 105.031C54.668 105.031 53.031 106.668 53.031 108.688C53.031 110.707 54.668 112.344 56.6873 112.344Z" fill="#201D1F"/>
<path d="M107.875 112.344C109.894 112.344 111.531 110.707 111.531 108.688C111.531 106.668 109.894 105.031 107.875 105.031C105.855 105.031 104.219 106.668 104.219 108.688C104.219 110.707 105.855 112.344 107.875 112.344Z" fill="#201D1F"/>
<path d="M100.562 97.7188C102.582 97.7188 104.219 96.0818 104.219 94.0625C104.219 92.0432 102.582 90.4062 100.562 90.4062C98.543 90.4062 96.906 92.0432 96.906 94.0625C96.906 96.0818 98.543 97.7188 100.562 97.7188Z" fill="#201D1F"/>
<path d="M107.875 83.0938C109.894 83.0938 111.531 81.4568 111.531 79.4375C111.531 77.4182 109.894 75.7812 107.875 75.7812C105.855 75.7812 104.219 77.4182 104.219 79.4375C104.219 81.4568 105.855 83.0938 107.875 83.0938Z" fill="#201D1F"/>
<path d="M5.49979 112.344C7.51908 112.344 9.15604 110.707 9.15604 108.688C9.15604 106.668 7.51908 105.031 5.49979 105.031C3.4805 105.031 1.84354 106.668 1.84354 108.688C1.84354 110.707 3.4805 112.344 5.49979 112.344Z" fill="#201D1F"/>
<path d="M12.8123 97.7188C14.8316 97.7188 16.4685 96.0818 16.4685 94.0625C16.4685 92.0432 14.8316 90.4062 12.8123 90.4062C10.793 90.4062 9.15604 92.0432 9.15604 94.0625C9.15604 96.0818 10.793 97.7188 12.8123 97.7188Z" fill="#201D1F"/>
<path d="M5.49979 83.0938C7.51908 83.0938 9.15604 81.4568 9.15604 79.4375C9.15604 77.4182 7.51908 75.7812 5.49979 75.7812C3.4805 75.7812 1.84354 77.4182 1.84354 79.4375C1.84354 81.4568 3.4805 83.0938 5.49979 83.0938Z" fill="#201D1F"/>
<path d="M107.875 103.203C106.743 103.206 105.64 103.559 104.717 104.214C103.795 104.869 103.097 105.793 102.719 106.859H84.1092V99.5469C84.1124 99.0977 83.9502 98.6631 83.6535 98.326C83.3568 97.9888 82.9463 97.7726 82.5004 97.7188L69.4842 96.11V91.0827C72.0036 89.8454 74.3311 88.2507 76.3945 86.3478L76.7967 88.8706C76.8667 89.3032 77.0899 89.6962 77.4254 89.9781C77.761 90.2599 78.1866 90.4119 78.6248 90.4063H83.3596L88.2956 95.3605C88.4664 95.5299 88.669 95.6639 88.8917 95.7549C89.1144 95.8459 89.3529 95.892 89.5935 95.8906H95.407C95.8382 97.1104 96.6868 98.1384 97.8027 98.793C98.9186 99.4476 100.23 99.6867 101.505 99.4679C102.78 99.2491 103.937 98.5866 104.771 97.5975C105.605 96.6083 106.062 95.3562 106.062 94.0625C106.062 92.7688 105.605 91.5167 104.771 90.5275C103.937 89.5384 102.78 88.8759 101.505 88.6571C100.23 88.4383 98.9186 88.6774 97.8027 89.332C96.6868 89.9866 95.8382 91.0146 95.407 92.2344H90.3431L85.4071 87.2802C85.2363 87.1107 85.0337 86.9767 84.811 86.8857C84.5883 86.7947 84.3497 86.7486 84.1092 86.75H80.1787L79.5571 82.9841C81.2983 80.7949 82.7201 78.3698 83.7801 75.7813H90.1054L91.5131 80.0225C91.6357 80.3856 91.8694 80.701 92.181 80.9241C92.4927 81.1471 92.8665 81.2666 93.2498 81.2656H102.719C103.151 82.4854 103.999 83.5134 105.115 84.168C106.231 84.8226 107.542 85.0617 108.818 84.8429C110.093 84.6241 111.249 83.9616 112.083 82.9725C112.917 81.9833 113.375 80.7312 113.375 79.4375C113.375 78.1438 112.917 76.8917 112.083 75.9025C111.249 74.9134 110.093 74.2509 108.818 74.0321C107.542 73.8133 106.231 74.0524 105.115 74.707C103.999 75.3616 103.151 76.3896 102.719 77.6094H94.566L93.2498 73.3681C93.1226 72.9897 92.875 72.6634 92.5449 72.4389C92.2148 72.2144 91.8203 72.1042 91.4217 72.125H84.9684C85.6074 69.7399 85.9331 67.2817 85.9373 64.8125H82.281C82.281 71.6004 79.5845 78.1103 74.7848 82.91C69.985 87.7098 63.4752 90.4063 56.6873 90.4063C49.8994 90.4063 43.3895 87.7098 38.5898 82.91C33.79 78.1103 31.0935 71.6004 31.0935 64.8125H27.4373C27.4415 67.2817 27.7672 69.7399 28.4062 72.125H21.9529C21.5697 72.124 21.1958 72.2435 20.8841 72.4666C20.5725 72.6896 20.3388 73.005 20.2162 73.3681L18.8085 77.6094H10.6551C10.2238 76.3896 9.37528 75.3616 8.25937 74.707C7.14346 74.0524 5.83207 73.8133 4.55696 74.0321C3.28185 74.2509 2.12513 74.9134 1.29124 75.9025C0.45736 76.8917 0 78.1438 0 79.4375C0 80.7312 0.45736 81.9833 1.29124 82.9725C2.12513 83.9616 3.28185 84.6241 4.55696 84.8429C5.83207 85.0617 7.14346 84.8226 8.25937 84.168C9.37528 83.5134 10.2238 82.4854 10.6551 81.2656H20.1248C20.508 81.2666 20.8819 81.1471 21.1936 80.9241C21.5052 80.701 21.7389 80.3856 21.8615 80.0225L23.2692 75.7813H29.5945C30.6394 78.411 32.062 80.8744 33.8174 83.0938L33.1959 86.75H29.2654C29.0248 86.7486 28.7863 86.7947 28.5636 86.8857C28.3408 86.9767 28.1383 87.1107 27.9674 87.2802L23.0315 92.2344H17.9676C17.5363 91.0146 16.6878 89.9866 15.5719 89.332C14.456 88.6774 13.1446 88.4383 11.8695 88.6571C10.5943 88.8759 9.43763 89.5384 8.60375 90.5275C7.76986 91.5167 7.3125 92.7688 7.3125 94.0625C7.3125 95.3562 7.76986 96.6083 8.60375 97.5975C9.43763 98.5866 10.5943 99.2491 11.8695 99.4679C13.1446 99.6867 14.456 99.4476 15.5719 98.793C16.6878 98.1384 17.5363 97.1104 17.9676 95.8906H23.781C24.0216 95.892 24.2601 95.8459 24.4829 95.7549C24.7056 95.6639 24.9082 95.5299 25.079 95.3605L30.0149 90.4063H34.7498C35.188 90.4119 35.6136 90.2599 35.9491 89.9781C36.2847 89.6962 36.5078 89.3032 36.5779 88.8706L36.9801 86.3478C39.043 88.2513 41.3706 89.8461 43.8904 91.0827V96.11L30.8742 97.7188C30.4283 97.7726 30.0178 97.9888 29.7211 98.326C29.4244 98.6631 29.2622 99.0977 29.2654 99.5469V106.859H10.6551C10.2238 105.64 9.37528 104.612 8.25937 103.957C7.14346 103.302 5.83207 103.063 4.55696 103.282C3.28185 103.501 2.12513 104.163 1.29124 105.153C0.45736 106.142 0 107.394 0 108.688C0 109.981 0.45736 111.233 1.29124 112.222C2.12513 113.212 3.28185 113.874 4.55696 114.093C5.83207 114.312 7.14346 114.073 8.25937 113.418C9.37528 112.763 10.2238 111.735 10.6551 110.516H31.0935C31.5784 110.516 32.0434 110.323 32.3862 109.98C32.729 109.637 32.9217 109.172 32.9217 108.688V101.156L45.9379 99.5469C46.3838 99.493 46.7943 99.2768 47.091 98.9397C47.3877 98.6025 47.5499 98.1679 47.5467 97.7188V92.5817C49.9109 93.3854 52.3684 93.8831 54.8592 94.0625V103.624C53.6394 104.055 52.6114 104.903 51.9568 106.019C51.3022 107.135 51.0631 108.447 51.2819 109.722C51.5007 110.997 52.1632 112.154 53.1523 112.987C54.1414 113.821 55.3935 114.279 56.6873 114.279C57.981 114.279 59.2331 113.821 60.2222 112.987C61.2114 112.154 61.8739 110.997 62.0927 109.722C62.3114 108.447 62.0724 107.135 61.4178 106.019C60.7632 104.903 59.7352 104.055 58.5154 103.624V94.0625C61.0021 93.9127 63.4595 93.4458 65.8279 92.6731V97.7188C65.8247 98.1679 65.9869 98.6025 66.2836 98.9397C66.5803 99.2768 66.9908 99.493 67.4367 99.5469L80.4529 101.174V108.688C80.4529 109.172 80.6455 109.637 80.9883 109.98C81.3312 110.323 81.7962 110.516 82.281 110.516H102.719C103.055 111.464 103.645 112.302 104.424 112.938C105.204 113.574 106.144 113.983 107.141 114.12C108.137 114.258 109.153 114.119 110.075 113.718C110.998 113.317 111.793 112.67 112.373 111.848C112.952 111.025 113.295 110.059 113.362 109.056C113.43 108.052 113.22 107.049 112.755 106.156C112.291 105.264 111.59 104.516 110.729 103.995C109.868 103.474 108.881 103.2 107.875 103.203ZM100.562 92.2344C100.924 92.2344 101.277 92.3416 101.578 92.5425C101.879 92.7433 102.113 93.0289 102.251 93.3629C102.39 93.697 102.426 94.0645 102.355 94.4192C102.285 94.7738 102.111 95.0995 101.855 95.3552C101.599 95.6109 101.274 95.785 100.919 95.8555C100.564 95.926 100.197 95.8898 99.8627 95.7515C99.5286 95.6131 99.2431 95.3788 99.0423 95.0782C98.8414 94.7775 98.7342 94.4241 98.7342 94.0625C98.7342 93.5777 98.9268 93.1127 99.2696 92.7698C99.6124 92.427 100.077 92.2344 100.562 92.2344ZM107.875 77.6094C108.236 77.6094 108.59 77.7166 108.89 77.9175C109.191 78.1183 109.425 78.4039 109.564 78.7379C109.702 79.072 109.738 79.4395 109.668 79.7942C109.597 80.1488 109.423 80.4745 109.167 80.7302C108.912 80.9858 108.586 81.16 108.231 81.2305C107.877 81.301 107.509 81.2648 107.175 81.1265C106.841 80.9881 106.556 80.7538 106.355 80.4531C106.154 80.1525 106.047 79.7991 106.047 79.4375C106.047 78.9527 106.239 78.4877 106.582 78.1448C106.925 77.802 107.39 77.6094 107.875 77.6094ZM5.49978 81.2656C5.13821 81.2656 4.78476 81.1584 4.48413 80.9575C4.1835 80.7567 3.94918 80.4711 3.81081 80.1371C3.67245 79.803 3.63624 79.4355 3.70678 79.0808C3.77732 78.7262 3.95143 78.4005 4.2071 78.1448C4.46277 77.8892 4.78851 77.715 5.14313 77.6445C5.49775 77.574 5.86533 77.6102 6.19937 77.7485C6.53342 77.8869 6.81893 78.1212 7.01981 78.4219C7.22069 78.7225 7.32791 79.0759 7.32791 79.4375C7.32791 79.9223 7.1353 80.3873 6.79246 80.7302C6.44962 81.073 5.98463 81.2656 5.49978 81.2656ZM12.8123 95.8906C12.4507 95.8906 12.0973 95.7834 11.7966 95.5825C11.496 95.3817 11.2617 95.0961 11.1233 94.7621C10.9849 94.428 10.9487 94.0605 11.0193 93.7059C11.0898 93.3512 11.2639 93.0255 11.5196 92.7698C11.7753 92.5142 12.101 92.34 12.4556 92.2695C12.8103 92.199 13.1778 92.2352 13.5119 92.3735C13.8459 92.5119 14.1314 92.7462 14.3323 93.0469C14.5332 93.3475 14.6404 93.7009 14.6404 94.0625C14.6404 94.5473 14.4478 95.0123 14.105 95.3552C13.7621 95.698 13.2971 95.8906 12.8123 95.8906ZM5.49978 110.516C5.13821 110.516 4.78476 110.408 4.48413 110.208C4.1835 110.007 3.94918 109.721 3.81081 109.387C3.67245 109.053 3.63624 108.685 3.70678 108.331C3.77732 107.976 3.95143 107.65 4.2071 107.395C4.46277 107.139 4.78851 106.965 5.14313 106.895C5.49775 106.824 5.86533 106.86 6.19937 106.999C6.53342 107.137 6.81893 107.371 7.01981 107.672C7.22069 107.972 7.32791 108.326 7.32791 108.688C7.32791 109.172 7.1353 109.637 6.79246 109.98C6.44962 110.323 5.98463 110.516 5.49978 110.516ZM56.6873 110.516C56.3257 110.516 55.9723 110.408 55.6716 110.208C55.371 110.007 55.1367 109.721 54.9983 109.387C54.8599 109.053 54.8237 108.685 54.8943 108.331C54.9648 107.976 55.1389 107.65 55.3946 107.395C55.6503 107.139 55.976 106.965 56.3306 106.895C56.6852 106.824 57.0528 106.86 57.3869 106.999C57.7209 107.137 58.0064 107.371 58.2073 107.672C58.4082 107.972 58.5154 108.326 58.5154 108.688C58.5154 109.172 58.3228 109.637 57.98 109.98C57.6371 110.323 57.1721 110.516 56.6873 110.516ZM107.875 110.516C107.513 110.516 107.16 110.408 106.859 110.208C106.558 110.007 106.324 109.721 106.186 109.387C106.047 109.053 106.011 108.685 106.082 108.331C106.152 107.976 106.326 107.65 106.582 107.395C106.838 107.139 107.164 106.965 107.518 106.895C107.873 106.824 108.24 106.86 108.574 106.999C108.908 107.137 109.194 107.371 109.395 107.672C109.596 107.972 109.703 108.326 109.703 108.688C109.703 109.172 109.51 109.637 109.167 109.98C108.825 110.323 108.36 110.516 107.875 110.516Z" fill="white"/>
</svg>
