<svg width="115" height="115" viewBox="0 0 115 115" fill="none" xmlns="http://www.w3.org/2000/svg">
<path d="M108.732 53.475V16.0426V1.78267C108.732 1.19088 108.438 0.638309 107.95 0.306765C107.459 -0.0247789 106.837 -0.0925137 106.288 0.126733L88.4634 7.25671C87.786 7.52943 87.3422 8.18361 87.3422 8.91264C87.3422 9.64168 87.786 10.2959 88.4616 10.5686L105.167 17.2494V53.475H103.385C102.912 53.475 102.458 53.6622 102.124 53.9973L70.4085 85.7132L63.6475 78.9522C62.9506 78.2552 61.824 78.2552 61.1271 78.9522L40.1061 99.9731L27.1064 86.9734C26.4094 86.2764 25.2829 86.2764 24.5859 86.9734L0.522271 111.037C0.187162 111.37 0 111.823 0 112.297V114.08H3.56499V113.035L25.8462 90.7541L38.8459 103.754C39.5428 104.451 40.6694 104.451 41.3663 103.754L62.3873 82.7328L69.1483 89.4938C69.8452 90.1908 70.9718 90.1908 71.6687 89.4938L104.123 57.04H114.08V53.475H108.732ZM93.9232 8.91264L105.167 4.41541V13.4117L93.9232 8.91264Z" fill="black"/>
<path d="M3.07658 77.8718C7.39734 73.305 16.374 76.1731 21.7375 77.8843C23.9603 78.5937 26.0975 78.9484 28.1171 78.9484C30.1723 78.9484 32.0902 78.542 33.8674 77.8148V89.1247C33.8674 90.1104 34.6659 90.9072 35.6499 90.9072H44.5623C45.5463 90.9072 46.3448 90.1104 46.3448 89.1247V71.8042C46.7388 71.216 47.4678 70.7561 48.5783 70.2124C48.9366 70.036 49.302 69.8737 49.6674 69.7115C50.6888 69.2552 51.7458 68.7829 52.7333 68.0503C53.8973 67.1875 54.7618 65.7027 55.1058 64.1698H58.8223V74.8647C58.8223 75.8504 59.6208 76.6472 60.6048 76.6472H69.5173C70.5012 76.6472 71.2997 75.8504 71.2997 74.8647V60.6048C71.2997 55.6904 67.3016 51.6923 62.3873 51.6923H51.6923V46.3448H60.6048C65.5191 46.3448 69.5173 42.3467 69.5173 37.4324V21.3899C69.5173 20.4042 68.7187 19.6074 67.7348 19.6074H60.6048C59.6208 19.6074 58.8223 20.4042 58.8223 21.3899V35.6499H50.1059C51.0203 34.0741 51.5533 32.2507 51.5533 30.3024C51.5533 24.4041 46.7566 19.6074 40.8583 19.6074C34.96 19.6074 30.1634 24.4041 30.1634 30.3024C30.1634 32.0884 30.609 33.7693 31.3861 35.2524C25.3649 37.0277 19.9372 41.017 15.62 46.9295C13.702 49.5551 12.2814 52.5461 10.9071 55.4373C10.5399 56.2109 10.1745 56.9792 9.80371 57.7332C8.96772 59.4301 8.17986 61.2839 7.41695 63.0771C5.50612 67.5654 3.5329 72.2052 0.490179 75.4209L0.488396 75.4226C-0.188951 76.1374 -0.156867 77.2658 0.557914 77.9431C1.27269 78.6169 2.40279 78.5884 3.07658 77.8718ZM33.8674 54.7974L31.7908 52.7226L33.8674 50.6478V54.7974ZM50.6121 65.184C49.9366 65.6849 49.0988 66.0574 48.2147 66.4549C47.81 66.635 47.4072 66.815 47.0115 67.0093C46.7922 67.1162 46.5694 67.241 46.3448 67.3587V64.1698H51.3536C51.154 64.5904 50.8991 64.9719 50.6121 65.184ZM60.6048 39.2149C61.5887 39.2149 62.3873 38.4181 62.3873 37.4324V23.1724H65.9523V37.4324C65.9523 40.3806 63.553 42.7798 60.6048 42.7798H49.9098C48.9259 42.7798 48.1273 43.5766 48.1273 44.5623V53.4748C48.1273 54.4605 48.9259 55.2573 49.9098 55.2573H62.3873C65.3355 55.2573 67.7348 57.6565 67.7348 60.6048V73.0822H62.3873V62.3873C62.3873 61.4016 61.5887 60.6048 60.6048 60.6048H44.5623C43.5784 60.6048 42.7798 61.4016 42.7798 62.3873V87.3422H37.4324V46.3448C37.4324 45.6247 36.9974 44.9723 36.3326 44.6978C35.6659 44.4197 34.9012 44.5748 34.3896 45.0846L28.0101 51.4624C27.675 51.7975 27.4878 52.2484 27.4878 52.7226C27.4878 53.1967 27.675 53.6495 28.0101 53.9828L32.9886 58.9613L30.1616 61.7884L24.8783 56.505C22.7945 54.4195 22.7945 51.0274 24.8783 48.9419L34.7497 39.0705C36.4841 40.2808 38.5874 40.9973 40.8565 40.9973C40.9047 40.9973 40.9492 40.9902 40.9974 40.9902V51.6923H44.5623V40.3218C45.3395 40.033 46.0757 39.6658 46.7566 39.2149H60.6048ZM40.8565 23.1724C44.7887 23.1724 47.9865 26.3702 47.9865 30.3024C47.9865 34.2346 44.7887 37.4324 40.8565 37.4324C36.9244 37.4324 33.7266 34.2346 33.7266 30.3024C33.7266 26.3702 36.9261 23.1724 40.8565 23.1724ZM10.6967 64.4728C11.4757 62.644 12.2101 60.9167 13.0015 59.3071C13.3794 58.5389 13.7519 57.7564 14.1263 56.9685C15.4293 54.2252 16.7768 51.3875 18.4969 49.0328C20.6787 46.0454 24.0351 42.4447 28.6536 40.1275L22.356 46.425C18.8819 49.8991 18.8819 55.555 22.356 59.0291L28.8996 65.5726C29.5965 66.2695 30.7231 66.2695 31.42 65.5726L33.8674 63.1252V73.8523C30.1206 76.0501 25.8408 75.453 22.8213 74.4904C18.6271 73.15 12.5078 71.1999 7.18523 72.0395C8.50784 69.6153 9.61298 67.0218 10.6967 64.4728Z" fill="#FAC213"/>
</svg>
