<svg width="115" height="115" viewBox="0 0 115 115" fill="none" xmlns="http://www.w3.org/2000/svg">
<g clip-path="url(#clip0_74_1417)">
<path d="M110.655 71.4746V12.4121C112.595 12.0863 114.08 10.3994 114.08 8.36843C114.08 6.10484 112.238 4.26321 109.975 4.26321H4.10521C1.84163 4.26321 0 6.10484 0 8.36843C0 10.3997 1.4845 12.0863 3.42442 12.4121V71.4743C1.4845 71.8003 0 73.4872 0 75.5185C0 77.782 1.84163 79.6234 4.10521 79.6234H36.9423L21.659 108.365C21.4032 108.847 21.5861 109.445 22.0675 109.701C22.2153 109.779 22.3737 109.817 22.5301 109.817C22.8835 109.817 23.2253 109.626 23.4031 109.293L39.1647 79.6234H57.3259V108.829C57.3259 109.374 57.7678 109.816 58.3134 109.816C58.859 109.816 59.3009 109.374 59.3009 108.829V79.6234H77.4423L93.2238 109.293C93.4015 109.626 93.7431 109.817 94.0967 109.817C94.2531 109.817 94.4115 109.779 94.5593 109.701C95.0408 109.445 95.2236 108.847 94.9678 108.365L79.6846 79.6234H109.975C112.238 79.6234 114.08 77.782 114.08 75.5185C114.08 73.4872 112.595 71.8003 110.655 71.4746ZM5.39942 67.5764H18.8236C19.3692 67.5764 19.8111 67.1342 19.8111 66.5889C19.8111 66.0436 19.3692 65.6014 18.8236 65.6014H5.39942V17.739H22.2778C22.8233 17.739 23.2653 17.2968 23.2653 16.7515C23.2653 16.2062 22.8233 15.764 22.2778 15.764H5.39942V12.4734H108.68V62.8132H75.2829C74.7373 62.8132 74.2954 63.2553 74.2954 63.8007C74.2954 64.346 74.7373 64.7882 75.2829 64.7882H108.68V71.4132H5.39942V67.5764ZM1.975 8.36843C1.975 7.19388 2.93044 6.23821 4.10521 6.23821H109.975C111.15 6.23821 112.105 7.19388 112.105 8.36843C112.105 9.54297 111.15 10.4984 109.975 10.4984H4.10521C2.93044 10.4984 1.975 9.54297 1.975 8.36843ZM109.975 77.6484H4.10521C2.93044 77.6484 1.975 76.693 1.975 75.5185C1.975 74.3439 2.93044 73.3882 4.10521 73.3882H109.975C111.15 73.3882 112.105 74.3439 112.105 75.5185C112.105 76.693 111.149 77.6484 109.975 77.6484Z" fill="black"/>
<path d="M35.3105 20.7089C23.4914 20.7089 13.8759 30.3244 13.8759 42.1435C13.8759 53.9626 23.4914 63.5781 35.3105 63.5781C47.1296 63.5781 56.745 53.9626 56.745 42.1435C56.745 30.3244 47.1296 20.7089 35.3105 20.7089ZM34.323 22.709V41.3591L16.1606 45.5779C15.961 44.4621 15.8509 43.3159 15.8509 42.1435C15.8509 31.7448 24.0499 23.2251 34.323 22.709ZM16.6072 47.502L33.0759 43.6763L23.5813 57.6586C20.267 55.1467 17.7827 51.5989 16.6072 47.502ZM35.3105 61.6031C31.6156 61.6031 28.1582 60.5675 25.2124 58.7718L35.7048 43.3206L53.3873 49.3339C50.5208 56.5141 43.5009 61.6031 35.3105 61.6031ZM54.0244 47.4646L36.298 41.4362V22.709C46.571 23.2251 54.77 31.7448 54.77 42.1435C54.77 43.9886 54.5063 45.7722 54.0244 47.4646Z" fill="#FAC213"/>
<path d="M65.8649 32.2104H96.884C97.4296 32.2104 97.8715 31.7682 97.8715 31.2229C97.8715 30.6776 97.4296 30.2354 96.884 30.2354H65.8649C65.3193 30.2354 64.8774 30.6776 64.8774 31.2229C64.8774 31.7685 65.3193 32.2104 65.8649 32.2104Z" fill="#FAC213"/>
<path d="M97.8715 48.6494C97.8715 48.1041 97.4296 47.6619 96.884 47.6619H65.8649C65.3193 47.6619 64.8774 48.1041 64.8774 48.6494C64.8774 49.1947 65.3193 49.6369 65.8649 49.6369H96.884C97.4293 49.6369 97.8715 49.195 97.8715 48.6494Z" fill="#FAC213"/>
</g>
<defs>
<clipPath id="clip0_74_1417">
<rect width="114.08" height="114.08" fill="white"/>
</clipPath>
</defs>
</svg>
