<svg width="123" height="115" viewBox="0 0 123 115" fill="none" xmlns="http://www.w3.org/2000/svg">
<path d="M31.3828 96.8615C32.1231 96.8615 32.8692 96.7891 33.6002 96.6472C36.6381 96.0577 39.2638 94.3204 40.9946 91.7553C42.725 89.1906 43.3531 86.1055 42.7632 83.0676C42.4505 81.4592 41.8098 79.9829 40.9222 78.6993L53.2305 64.4985C54.9804 65.5491 57.0173 66.1492 59.1693 66.1492C59.9097 66.1492 60.6558 66.0772 61.3872 65.9353C64.4243 65.3458 67.05 63.6081 68.7808 61.0434C70.2205 58.9089 70.8937 56.4141 70.7401 53.8869L89.4905 46.3388C91.6031 48.4436 94.5068 49.7239 97.6549 49.7239C98.3953 49.7239 99.1418 49.6516 99.8736 49.5097C106.143 48.2916 110.252 42.1999 109.035 35.9313C108.633 33.8602 107.69 32.007 106.371 30.5043L114.842 11.7018L117.167 16.8934C117.674 18.0257 118.787 18.6974 119.952 18.6974C120.368 18.6974 120.792 18.6116 121.196 18.4303C122.733 17.7419 123.422 15.9379 122.733 14.4011L117.297 2.26279C116.966 1.52486 116.356 0.948333 115.6 0.660071C114.845 0.372216 114.005 0.395797 113.267 0.726343L101.131 6.16266C99.5943 6.85099 98.9064 8.65537 99.5951 10.1922C100.283 11.7295 102.088 12.417 103.625 11.7283L109.283 9.19327L101.211 27.1098C100.091 26.748 98.9015 26.5532 97.6749 26.5532C96.9345 26.5532 96.188 26.6256 95.4562 26.7675C89.188 27.9856 85.0775 34.0773 86.2936 40.3479C86.3359 40.5658 86.3867 40.7801 86.4404 40.9932L68.7852 48.1001C66.6841 44.9829 63.1273 42.9793 59.188 42.9793C58.4481 42.9793 57.7016 43.0516 56.9702 43.1935C50.7004 44.4108 46.5899 50.5025 47.8072 56.7732C48.0365 57.9534 48.4422 59.0634 48.9923 60.0778L36.2604 74.7665C34.7736 74.075 33.1237 73.6916 31.4015 73.6916C30.6615 73.6916 29.9158 73.7635 29.184 73.9054C26.1465 74.4954 23.5208 76.2331 21.7904 78.7977C20.06 81.3628 19.4319 84.4479 20.0222 87.4858C21.0781 92.9185 25.8558 96.8615 31.3828 96.8615ZM96.6198 32.7527C96.9686 32.6848 97.324 32.6502 97.6753 32.6502C100.289 32.6502 102.548 34.518 103.048 37.0925C103.625 40.0613 101.679 42.9455 98.7104 43.522C98.3616 43.5899 98.0062 43.6245 97.6549 43.6245C95.0406 43.6245 92.7805 41.7567 92.2808 39.1843C91.7047 36.2147 93.6514 33.3296 96.6198 32.7527ZM58.133 49.1795C58.4818 49.1116 58.8372 49.0771 59.188 49.0771C61.8023 49.0771 64.0616 50.9449 64.5613 53.5185C64.8411 54.957 64.5438 56.4178 63.7242 57.6322C62.9049 58.8463 61.6624 59.6692 60.224 59.9481C59.8751 60.016 59.5198 60.0501 59.1689 60.0501C56.5542 60.0501 54.2937 58.1823 53.7936 55.6099C53.2179 52.6403 55.1642 49.7561 58.133 49.1795ZM26.8458 82.2081C27.665 80.9941 28.9083 80.1712 30.3464 79.8918C30.6952 79.8243 31.0498 79.7898 31.401 79.7898C34.0153 79.7898 36.2755 81.6576 36.776 84.2304C37.0553 85.6689 36.7577 87.1301 35.938 88.3445C35.1188 89.5586 33.8759 90.3815 32.4374 90.6604C32.0886 90.7283 31.7332 90.7628 31.3823 90.7628C28.7685 90.7628 26.5087 88.895 26.0086 86.3222C25.7293 84.8838 26.0269 83.4225 26.8458 82.2081Z" fill="#FAC213"/>
<path d="M119.756 103.084H12.6481V8.66833C12.6481 6.98389 11.2833 5.61902 9.59883 5.61902C7.9148 5.61902 6.54952 6.98389 6.54952 8.66833V103.084H3.04931C1.36487 103.084 0 104.449 0 106.133C0 107.817 1.36487 109.182 3.04931 109.182H6.54952V111.493C6.54952 113.178 7.9148 114.543 9.59883 114.543C11.2833 114.543 12.6481 113.178 12.6481 111.493V109.182H119.756C121.44 109.182 122.805 107.817 122.805 106.133C122.805 104.449 121.44 103.084 119.756 103.084Z" fill="black"/>
</svg>
