<svg width="147" height="115" viewBox="0 0 147 115" fill="none" xmlns="http://www.w3.org/2000/svg">
<path d="M11.2936 13.438C11.8569 13.438 12.4116 13.2093 12.809 12.809C13.2093 12.4116 13.438 11.8569 13.438 11.2937C13.438 10.7304 13.2093 10.1757 12.809 9.7783C12.4116 9.37802 11.8597 9.14929 11.2936 9.14929C10.7275 9.14929 10.1757 9.37802 9.77829 9.7783C9.37801 10.1757 9.14928 10.7304 9.14928 11.2937C9.14928 11.8569 9.37801 12.4116 9.77829 12.809C10.1757 13.2093 10.7304 13.438 11.2936 13.438Z" fill="white"/>
<path d="M18.1556 13.438C18.7217 13.438 19.2735 13.2093 19.6709 12.809C20.0712 12.4116 20.3 11.8569 20.3 11.2937C20.3 10.7304 20.0712 10.1757 19.6709 9.7783C19.2735 9.37802 18.7188 9.14929 18.1556 9.14929C17.5923 9.14929 17.0377 9.37802 16.6402 9.7783C16.24 10.1757 16.0112 10.7304 16.0112 11.2937C16.0112 11.8569 16.24 12.4116 16.6402 12.809C17.0377 13.2093 17.5923 13.438 18.1556 13.438Z" fill="white"/>
<path d="M25.0175 13.438C25.5808 13.438 26.1355 13.2093 26.5329 12.809C26.9332 12.4116 27.1619 11.8569 27.1619 11.2937C27.1619 10.7304 26.9332 10.1757 26.5329 9.7783C26.1355 9.37802 25.5808 9.14929 25.0175 9.14929C24.4543 9.14929 23.8996 9.37802 23.5022 9.7783C23.1019 10.1757 22.8732 10.7304 22.8732 11.2937C22.8732 11.8569 23.1019 12.4116 23.5022 12.809C23.8996 13.2093 24.4543 13.438 25.0175 13.438Z" fill="white"/>
<path d="M34.1668 13.438H121.085C122.269 13.438 123.229 12.4779 123.229 11.2937C123.229 10.1094 122.269 9.14929 121.085 9.14929H34.1668C32.9825 9.14929 32.0224 10.1094 32.0224 11.2937C32.0224 12.4779 32.9825 13.438 34.1668 13.438Z" fill="white"/>
<path d="M130.234 13.438H134.809C135.993 13.438 136.953 12.4779 136.953 11.2937C136.953 10.1094 135.993 9.14929 134.809 9.14929H130.234C129.05 9.14929 128.09 10.1094 128.09 11.2937C128.09 12.4779 129.05 13.438 130.234 13.438Z" fill="white"/>
<path d="M125.66 32.0225H84.4878C80.7829 32.0225 77.7688 35.0366 77.7688 38.7415V38.8844H75.3385C71.6337 38.8844 68.6195 41.8985 68.6195 45.6034V64.0449H63.759V57.04C63.759 53.3351 60.7449 50.321 57.04 50.321H20.4429C16.738 50.321 13.7239 53.3351 13.7239 57.04V75.3386C13.7239 79.0434 16.738 82.0575 20.4429 82.0575H57.04C60.7449 82.0575 63.759 79.0434 63.759 75.3386V68.3336H68.6195V86.7751C68.6195 90.48 71.6337 93.4941 75.3385 93.4941H77.7688V93.6371C77.7688 97.342 80.7829 100.356 84.4878 100.356H125.66C129.364 100.356 132.379 97.342 132.379 93.6371V89.0625C132.379 85.3576 129.364 82.3435 125.66 82.3435H84.4878C80.7829 82.3435 77.7688 85.3576 77.7688 89.0625V89.2054H75.3385C73.9985 89.2054 72.9083 88.1152 72.9083 86.7751V68.3336H77.7688V68.4766C77.7688 72.1815 80.7829 75.1956 84.4878 75.1956H125.66C129.364 75.1956 132.379 72.1815 132.379 68.4766V63.902C132.379 60.1971 129.364 57.183 125.66 57.183H84.4878C80.7829 57.183 77.7688 60.1971 77.7688 63.902V64.0449H72.9083V45.6034C72.9083 44.2633 73.9985 43.1731 75.3385 43.1731H77.7688V43.3161C77.7688 47.021 80.7829 50.0351 84.4878 50.0351H125.66C129.364 50.0351 132.379 47.021 132.379 43.3161V38.7415C132.379 35.0366 129.364 32.0225 125.66 32.0225ZM59.4703 75.3386C59.4703 76.6786 58.3801 77.7688 57.04 77.7688H20.4429C19.1028 77.7688 18.0126 76.6786 18.0126 75.3386V57.04C18.0126 55.6999 19.1028 54.6097 20.4429 54.6097H57.04C58.3801 54.6097 59.4703 55.6999 59.4703 57.04V75.3386ZM82.0575 89.0625C82.0575 87.7224 83.1477 86.6322 84.4878 86.6322H125.66C127 86.6322 128.09 87.7224 128.09 89.0625V93.6371C128.09 94.9772 127 96.0674 125.66 96.0674H84.4878C83.1477 96.0674 82.0575 94.9772 82.0575 93.6371V89.0625ZM82.0575 63.902C82.0575 62.5619 83.1477 61.4717 84.4878 61.4717H125.66C127 61.4717 128.09 62.5619 128.09 63.902V68.4766C128.09 69.8167 127 70.9069 125.66 70.9069H84.4878C83.1477 70.9069 82.0575 69.8167 82.0575 68.4766V63.902ZM128.09 43.3161C128.09 44.6562 127 45.7464 125.66 45.7464H84.4878C83.1477 45.7464 82.0575 44.6562 82.0575 43.3161V38.7415C82.0575 37.4014 83.1477 36.3112 84.4878 36.3112H125.66C127 36.3112 128.09 37.4014 128.09 38.7415V43.3161Z" fill="#FAC213"/>
<path d="M134.809 0H11.2936C5.06641 0 0 5.06641 0 11.2936V102.786C0 109.014 5.06641 114.08 11.2936 114.08H134.809C141.036 114.08 146.102 109.014 146.102 102.786V11.2936C146.102 5.06641 141.036 0 134.809 0ZM11.2936 4.28872H134.809C138.671 4.28872 141.814 7.43121 141.814 11.2936V18.2985H4.28872V11.2936C4.28872 7.43121 7.43121 4.28872 11.2936 4.28872ZM134.809 109.791H11.2936C7.43121 109.791 4.28872 106.649 4.28872 102.786V22.5873H141.814V102.786C141.814 106.649 138.671 109.791 134.809 109.791Z" fill="white"/>
</svg>
