<svg width="115" height="115" viewBox="0 0 115 115" fill="none" xmlns="http://www.w3.org/2000/svg">
<g clip-path="url(#clip0_71_1064)">
<path d="M86.48 73.6004H104.88C107.923 73.6004 110.4 71.1238 110.4 68.0804V60.3818C112.536 59.6201 114.08 57.5961 114.08 55.2004C114.08 52.157 111.603 49.6804 108.56 49.6804C105.517 49.6804 103.04 52.157 103.04 55.2004C103.04 57.5961 104.584 59.6201 106.72 60.3818V68.0804C106.72 69.0961 105.896 69.9204 104.88 69.9204H86.48C83.4366 69.9204 80.96 72.397 80.96 75.4404V110.4H77.28V66.2404C77.28 65.2247 78.1043 64.4004 79.12 64.4004H92C95.0434 64.4004 97.52 61.9238 97.52 58.8804V53.0218C99.6562 52.2601 101.2 50.2361 101.2 47.8404C101.2 44.797 98.7234 42.3204 95.68 42.3204C92.6366 42.3204 90.16 44.797 90.16 47.8404C90.16 50.2361 91.7038 52.2601 93.84 53.0218V58.8804C93.84 59.8961 93.0157 60.7204 92 60.7204H79.12C76.0766 60.7204 73.6 63.197 73.6 66.2404V110.4H69.92V95.6804H66.24V110.4H62.56V103.04H58.88V110.4H55.2V103.04H51.52V110.4H47.84V95.6804H44.16V110.4H40.48V62.5604C40.48 59.517 38.0034 57.0404 34.96 57.0404H20.24C19.2243 57.0404 18.4 56.2161 18.4 55.2004V41.9818C20.5362 41.2201 22.08 39.1961 22.08 36.8004C22.08 33.757 19.6034 31.2804 16.56 31.2804C13.5166 31.2804 11.04 33.757 11.04 36.8004C11.04 39.1961 12.5838 41.2201 14.72 41.9818V55.2004C14.72 58.2438 17.1966 60.7204 20.24 60.7204H34.96C35.9757 60.7204 36.8 61.5447 36.8 62.5604V110.4H33.12V71.7604C33.12 68.717 30.6434 66.2404 27.6 66.2404H9.2C8.18432 66.2404 7.36 65.4161 7.36 64.4004V51.1818C9.49624 50.4201 11.04 48.3961 11.04 46.0004C11.04 42.957 8.56336 40.4804 5.52 40.4804C2.47664 40.4804 0 42.957 0 46.0004C0 48.3961 1.54376 50.4201 3.68 51.1818V64.4004C3.68 67.4438 6.15664 69.9204 9.2 69.9204H27.6C28.6157 69.9204 29.44 70.7447 29.44 71.7604V110.4H7.36V114.08H106.72V110.4H84.64V75.4404C84.64 74.4247 85.4643 73.6004 86.48 73.6004ZM108.56 53.3604C109.576 53.3604 110.4 54.1847 110.4 55.2004C110.4 56.2161 109.576 57.0404 108.56 57.0404C107.544 57.0404 106.72 56.2161 106.72 55.2004C106.72 54.1847 107.544 53.3604 108.56 53.3604ZM95.68 46.0004C96.6957 46.0004 97.52 46.8247 97.52 47.8404C97.52 48.8561 96.6957 49.6804 95.68 49.6804C94.6643 49.6804 93.84 48.8561 93.84 47.8404C93.84 46.8247 94.6643 46.0004 95.68 46.0004ZM16.56 38.6404C15.5443 38.6404 14.72 37.8161 14.72 36.8004C14.72 35.7847 15.5443 34.9604 16.56 34.9604C17.5757 34.9604 18.4 35.7847 18.4 36.8004C18.4 37.8161 17.5757 38.6404 16.56 38.6404ZM5.52 47.8404C4.50432 47.8404 3.68 47.0161 3.68 46.0004C3.68 44.9847 4.50432 44.1604 5.52 44.1604C6.53568 44.1604 7.36 44.9847 7.36 46.0004C7.36 47.0161 6.53568 47.8404 5.52 47.8404Z" fill="black"/>
<path d="M42.1066 25.5267L40.1267 27.5047L47.932 35.3136L49.9137 33.3338C50.4362 33.584 50.9717 33.8048 51.52 33.998V36.8004H62.56V33.9999C63.1083 33.8067 63.6438 33.584 64.1663 33.3356L66.148 35.3155L73.9533 27.5065L71.9734 25.5285C72.2237 25.006 72.4445 24.4705 72.6377 23.9222H75.44V12.8804H72.6395C72.4463 12.332 72.2237 11.7966 71.9753 11.274L73.9551 9.29237L66.148 1.48709L64.1663 3.46693C63.6438 3.21669 63.1083 2.99589 62.56 2.80085V0.000366211H51.52V2.80085C50.9717 2.99405 50.4362 3.21669 49.9137 3.46509L47.932 1.48709L40.1267 9.29237L42.1066 11.274C41.8563 11.7966 41.6355 12.332 41.4405 12.8804H38.64V23.9204H41.4405C41.6355 24.4687 41.8563 25.0041 42.1066 25.5267ZM42.32 16.5604H44.2262L44.5814 15.1804C44.8831 14.0138 45.345 12.9006 45.954 11.8702L46.679 10.6411L45.3302 9.29237L47.932 6.69061L49.2807 8.03933L50.5098 7.31437C51.5402 6.70533 52.6534 6.24349 53.82 5.94173L55.2 5.58661V3.68037H58.88V5.58661L60.26 5.94173C61.4266 6.24349 62.5398 6.70533 63.5702 7.31437L64.7993 8.03933L66.148 6.69061L68.7498 9.29237L67.401 10.6411L68.126 11.8702C68.735 12.9006 69.1969 14.0138 69.4986 15.1804L69.8538 16.5604H71.76V20.2404H69.8538L69.4986 21.6204C69.1969 22.7869 68.735 23.9001 68.126 24.9305L67.3992 26.1596L68.7498 27.5084L66.148 30.1101L64.7993 28.7614L63.5702 29.4864C62.5398 30.0954 61.4266 30.5572 60.26 30.859L58.88 31.2141V33.1204H55.2V31.2141L53.82 30.859C52.6534 30.5572 51.5402 30.0954 50.5098 29.4864L49.2807 28.7614L47.932 30.1101L45.3302 27.5084L46.6808 26.1596L45.954 24.9305C45.345 23.9001 44.8831 22.7869 44.5814 21.6204L44.2262 20.2404H42.32V16.5604Z" fill="#FAC213"/>
<path d="M57.04 27.6003C62.1129 27.6003 66.24 23.4732 66.24 18.4003C66.24 13.3274 62.1129 9.20032 57.04 9.20032C51.9671 9.20032 47.84 13.3274 47.84 18.4003C47.84 23.4732 51.9671 27.6003 57.04 27.6003ZM57.04 12.8803C60.0834 12.8803 62.56 15.357 62.56 18.4003C62.56 21.4437 60.0834 23.9203 57.04 23.9203C53.9966 23.9203 51.52 21.4437 51.52 18.4003C51.52 15.357 53.9966 12.8803 57.04 12.8803Z" fill="#FAC213"/>
<path d="M55.2 40.4803H51.52V66.2403H55.2V40.4803Z" fill="black"/>
<path d="M62.56 40.4803H58.88V66.2403H62.56V40.4803Z" fill="black"/>
<path d="M25.76 25.4218V46.0003C25.76 49.0437 28.2366 51.5203 31.28 51.5203H42.32C43.3357 51.5203 44.16 52.3447 44.16 53.3603V73.6003H47.84V53.3603C47.84 50.317 45.3634 47.8403 42.32 47.8403H31.28C30.2643 47.8403 29.44 47.016 29.44 46.0003V25.4218C31.5762 24.66 33.12 22.636 33.12 20.2403C33.12 17.197 30.6434 14.7203 27.6 14.7203C24.5566 14.7203 22.08 17.197 22.08 20.2403C22.08 22.636 23.6238 24.66 25.76 25.4218ZM27.6 18.4003C28.6157 18.4003 29.44 19.2247 29.44 20.2403C29.44 21.256 28.6157 22.0803 27.6 22.0803C26.5843 22.0803 25.76 21.256 25.76 20.2403C25.76 19.2247 26.5843 18.4003 27.6 18.4003Z" fill="black"/>
<path d="M82.8 34.6219V49.6804C82.8 50.6961 81.9757 51.5204 80.96 51.5204H71.76C68.7166 51.5204 66.24 53.9971 66.24 57.0404V73.6004H69.92V57.0404C69.92 56.0247 70.7443 55.2004 71.76 55.2004H80.96C84.0034 55.2004 86.48 52.7238 86.48 49.6804V34.6219C88.6162 33.8601 90.16 31.8361 90.16 29.4404C90.16 26.3971 87.6834 23.9204 84.64 23.9204C81.5966 23.9204 79.12 26.3971 79.12 29.4404C79.12 31.8361 80.6638 33.8601 82.8 34.6219ZM84.64 27.6004C85.6557 27.6004 86.48 28.4247 86.48 29.4404C86.48 30.4561 85.6557 31.2804 84.64 31.2804C83.6243 31.2804 82.8 30.4561 82.8 29.4404C82.8 28.4247 83.6243 27.6004 84.64 27.6004Z" fill="black"/>
<path d="M66.24 80.9604V80.0404C66.24 76.4892 63.3512 73.6004 59.8 73.6004H58.88V69.9204H55.2V73.6004H54.28C50.7288 73.6004 47.84 76.4892 47.84 80.0404C47.84 83.5916 50.7288 86.4804 54.28 86.4804H59.8C61.3217 86.4804 62.56 87.7187 62.56 89.2404C62.56 90.7621 61.3217 92.0004 59.8 92.0004H54.28C52.7583 92.0004 51.52 90.7621 51.52 89.2404V88.3204H47.84V89.2404C47.84 92.7916 50.7288 95.6804 54.28 95.6804H55.2V99.3604H58.88V95.6804H59.8C63.3512 95.6804 66.24 92.7916 66.24 89.2404C66.24 85.6892 63.3512 82.8004 59.8 82.8004H54.28C52.7583 82.8004 51.52 81.5621 51.52 80.0404C51.52 78.5187 52.7583 77.2804 54.28 77.2804H59.8C61.3217 77.2804 62.56 78.5187 62.56 80.0404V80.9604H66.24Z" fill="#FAC213"/>
<path d="M114.08 110.4H110.4V114.08H114.08V110.4Z" fill="black"/>
<path d="M3.68 110.4H0V114.08H3.68V110.4Z" fill="black"/>
</g>
<defs>
<clipPath id="clip0_71_1064">
<rect width="114.08" height="114.08" fill="white" transform="translate(0 0.000366211)"/>
</clipPath>
</defs>
</svg>
