<svg width="122" height="122" viewBox="0 0 122 122" fill="none" xmlns="http://www.w3.org/2000/svg">
<path d="M32.52 49.632V61.04C32.52 64.8446 34.8016 72.448 43.928 72.448C53.0544 72.448 55.336 64.8446 55.336 61.04V49.632M72.448 49.632L81.004 61.04M89.56 72.448L81.004 61.04M81.004 61.04L89.56 49.632M81.004 61.04L72.448 72.448" stroke="#FAC213" stroke-width="5" stroke-linecap="round" stroke-linejoin="round"/>
<path d="M61.04 118.08C92.5423 118.08 118.08 92.5423 118.08 61.04C118.08 29.5377 92.5423 4 61.04 4C29.5377 4 4 29.5377 4 61.04C4 92.5423 29.5377 118.08 61.04 118.08Z" stroke="white" stroke-width="7" stroke-linecap="round" stroke-linejoin="round"/>
</svg>
