<svg width="115" height="115" viewBox="0 0 115 115" fill="none" xmlns="http://www.w3.org/2000/svg">
<g clip-path="url(#clip0_71_1046)">
<path d="M3.2439 43.2317H38.3408C39.2948 43.2317 40.0669 42.4584 40.0669 41.5056V6.4087C40.0669 5.4559 39.2948 4.68262 38.3408 4.68262H3.2439C2.28995 4.68262 1.51782 5.4559 1.51782 6.4087V41.5056C1.51782 42.4584 2.28995 43.2317 3.2439 43.2317ZM32.8749 7.8471C34.0671 7.8471 35.0325 8.8137 35.0325 10.0047C35.0325 11.1957 34.0671 12.1623 32.8749 12.1623C31.6828 12.1623 30.7173 11.1957 30.7173 10.0047C30.7173 8.8137 31.6828 7.8471 32.8749 7.8471ZM24.676 7.8471C25.8682 7.8471 26.8336 8.8137 26.8336 10.0047C26.8336 11.1957 25.8682 12.1623 24.676 12.1623C23.4839 12.1623 22.5184 11.1957 22.5184 10.0047C22.5184 8.8137 23.4839 7.8471 24.676 7.8471ZM4.96998 15.3268H36.6148V39.7796H4.96998V15.3268Z" fill="black"/>
<path d="M15.2712 21.8467L7.1241 26.0434C6.8813 26.1688 6.72595 26.4197 6.72595 26.6936V27.6406C6.72595 27.9145 6.88015 28.1653 7.1241 28.2908L15.2712 32.4874C15.3771 32.5415 15.491 32.568 15.6072 32.568C15.7384 32.568 15.8707 32.5335 15.9881 32.461C16.2044 32.3286 16.3391 32.0916 16.3391 31.8361V30.6244C16.3391 30.3483 16.1826 30.0939 15.934 29.9708L10.3404 27.1654L15.934 24.3599C16.1826 24.2368 16.3391 23.9825 16.3391 23.7063V22.4946C16.3391 22.2391 16.2056 22.0021 15.9881 21.8697C15.7706 21.7397 15.4979 21.7305 15.2712 21.8467Z" fill="black"/>
<path d="M23.9983 19.0792H22.8038C22.5 19.0792 22.2296 19.2656 22.1192 19.5476L17.2205 32.278C17.1342 32.5024 17.1642 32.7567 17.2999 32.9557C17.4357 33.1548 17.6613 33.2722 17.9029 33.2722H19.0778C19.3804 33.2722 19.652 33.0869 19.7602 32.805L24.6772 20.0746C24.7647 19.8491 24.7347 19.5959 24.5978 19.3968C24.4643 19.1966 24.2399 19.0792 23.9983 19.0792Z" fill="black"/>
<path d="M34.7391 26.0239L26.592 21.8456C26.363 21.7282 26.0926 21.7397 25.8762 21.8721C25.6587 22.0044 25.5241 22.2414 25.5241 22.4969V23.7086C25.5241 23.9859 25.6829 24.2402 25.9315 24.3634L31.5654 27.1688L25.9315 29.9731C25.6829 30.0963 25.5241 30.3506 25.5241 30.6279V31.8396C25.5241 32.0951 25.6564 32.3321 25.8762 32.4644C25.9936 32.5358 26.1248 32.5715 26.2583 32.5715C26.3733 32.5715 26.4873 32.5461 26.5931 32.4921L34.7402 28.3126C34.9842 28.1872 35.1384 27.9352 35.1384 27.6613V26.6786C35.1372 26.4013 34.983 26.1504 34.7391 26.0239Z" fill="black"/>
<path d="M73.6127 43.2317H108.71C109.664 43.2317 110.436 42.4584 110.436 41.5056V6.4087C110.436 5.4559 109.664 4.68262 108.71 4.68262H73.6127C72.6599 4.68262 71.8866 5.4559 71.8866 6.4087V41.5056C71.8866 42.4584 72.661 43.2317 73.6127 43.2317ZM103.244 7.8471C104.436 7.8471 105.401 8.8137 105.401 10.0047C105.401 11.1957 104.436 12.1623 103.244 12.1623C102.053 12.1623 101.086 11.1957 101.086 10.0047C101.086 8.8137 102.054 7.8471 103.244 7.8471ZM95.0448 7.8471C96.237 7.8471 97.2024 8.8137 97.2024 10.0047C97.2024 11.1957 96.237 12.1623 95.0448 12.1623C93.8538 12.1623 92.8872 11.1957 92.8872 10.0047C92.8872 8.8137 93.855 7.8471 95.0448 7.8471ZM75.3388 15.3268H106.984V39.7796H75.3388V15.3268Z" fill="black"/>
<path d="M98.2208 26.2379L89.2303 19.0976C88.6871 18.6696 87.9449 18.5833 87.3212 18.8859C86.6975 19.1863 86.2994 19.8191 86.2994 20.513V34.7923C86.2994 35.4873 86.6964 36.1191 87.3212 36.4194C87.5709 36.5414 87.839 36.5989 88.1072 36.5989C88.5088 36.5989 88.9046 36.4678 89.2326 36.2088L98.2231 29.0675C98.6546 28.7246 98.9067 28.2033 98.9067 27.6532C98.9032 27.1021 98.6523 26.5831 98.2208 26.2379Z" fill="#FAC213"/>
<path d="M39.8471 91.2098L37.6354 90.3939C37.8092 88.7829 37.754 87.1386 37.449 85.5034L39.5848 84.5195C40.9184 83.9062 41.503 82.3216 40.8885 80.9868L39.6423 78.2803C39.0278 76.9466 37.4433 76.3609 36.1107 76.9743L33.975 77.9581C32.9301 76.6636 31.7173 75.552 30.379 74.636L31.1949 72.4255C31.7012 71.0492 30.9958 69.513 29.6195 69.0032L26.8221 67.9722C25.4873 67.4797 23.8935 68.2138 23.401 69.5475L22.5852 71.7592C20.9742 71.5843 19.3275 71.6395 17.6946 71.9445L16.7119 69.811C16.0974 68.4762 14.5129 67.8916 13.1792 68.5038L10.4704 69.7512C9.13787 70.3657 8.55216 71.9502 9.16549 73.2839L10.1494 75.4196C8.85595 76.4633 7.74435 77.6785 6.82838 79.0156L4.619 78.1998C3.28762 77.705 1.68927 78.4403 1.19676 79.7739L0.165716 82.5713C-0.0816882 83.2411 -0.0517694 83.9626 0.243965 84.6093C0.543152 85.2548 1.07594 85.7473 1.7399 85.9913L3.95158 86.8083C3.77782 88.4182 3.83306 90.0648 4.13685 91.7L2.00226 92.6827C0.668581 93.2972 0.0840155 94.8829 0.697349 96.2143L1.94243 98.9254C2.55576 100.258 4.1403 100.842 5.47398 100.229L7.61087 99.2453C8.65572 100.54 9.86858 101.653 11.208 102.567L10.3922 104.777C10.1448 105.444 10.1724 106.166 10.4704 106.815C10.7673 107.461 11.2989 107.953 11.9663 108.199L14.7626 109.231C15.4289 109.476 16.1527 109.449 16.8005 109.153C17.4472 108.854 17.9374 108.321 18.1825 107.656L18.9995 105.444C20.6105 105.618 22.2561 105.564 23.8912 105.258L24.874 107.394C25.4884 108.727 27.0741 109.313 28.4067 108.701L31.1155 107.451C32.4491 106.838 33.0337 105.253 32.4204 103.919L31.4377 101.784C32.7311 100.739 33.8427 99.5261 34.7575 98.1878L36.9692 99.0048C37.6366 99.2533 38.3604 99.2223 39.0071 98.9254C39.6538 98.6285 40.1429 98.0946 40.3914 97.4306L41.4225 94.632C41.9299 93.2535 41.2234 91.7196 39.8471 91.2098ZM24.6254 96.922C20.0306 99.0381 14.59 97.0301 12.4727 92.4365C10.3565 87.8405 12.3656 82.3999 16.9605 80.2837C21.5553 78.1675 26.9959 80.1744 29.1121 84.7704C31.2271 89.3652 29.2202 94.8058 24.6254 96.922Z" fill="#FAC213"/>
<path d="M20.7924 83.2375C17.8293 83.2375 15.4197 85.6472 15.4197 88.6091C15.4197 91.5711 17.8304 93.983 20.7924 93.983C23.7543 93.983 26.1651 91.5711 26.1651 88.6091C26.1651 85.6472 23.7555 83.2375 20.7924 83.2375ZM20.7924 92.1533C18.8385 92.1533 17.2482 90.5619 17.2482 88.6091C17.2482 86.6563 18.8385 85.0649 20.7924 85.0649C22.7463 85.0649 24.3366 86.6563 24.3366 88.6091C24.3366 90.5619 22.7475 92.1533 20.7924 92.1533Z" fill="#FAC213"/>
<path d="M105.641 82.9994V91.3962C105.641 92.3962 104.999 93.2397 104.107 93.5561V68.1367H81.0924V93.5561C80.2017 93.2397 79.5585 92.3962 79.5585 91.3962V82.9994H71.1191V109.084H114.08V82.9994H105.641ZM101.805 93.6953H83.3938V70.4382H101.805V93.6953Z" fill="black"/>
<path d="M87.885 83.3078L91.9206 88.2099L94.4291 80.0605L97.1909 81.6393L100.786 75.4772L98.7996 74.3173L96.3532 78.5093L93.0736 76.6348L90.9793 83.4448L86.961 78.5657L84.0232 87.928L86.2176 88.6184L87.885 83.3078Z" fill="black"/>
<path d="M92.8872 46.296H89.4351V65.0907H92.8872V46.296Z" fill="black"/>
<path d="M22.6773 46.296H19.2251V65.0907H22.6773V46.296Z" fill="black"/>
<path d="M69.1065 24.4497H43.2153V27.9019H69.1065V24.4497Z" fill="black"/>
</g>
<defs>
<clipPath id="clip0_71_1046">
<rect width="114.08" height="114.08" fill="white" transform="translate(0 0.000366211)"/>
</clipPath>
</defs>
</svg>
