<svg width="123" height="123" viewBox="0 0 123 123" fill="none" xmlns="http://www.w3.org/2000/svg">
<path d="M113.081 57.5326C113.081 52.0631 108.631 47.6133 103.161 47.6133H73.1751L99.997 38.2256C102.441 40.3583 105.623 41.6617 109.113 41.6617C116.769 41.6617 123 35.4303 123 27.7746C123 20.1188 116.769 13.8875 109.113 13.8875C101.457 13.8875 95.2258 20.1188 95.2258 27.7746C95.2258 30.4131 95.9797 32.8731 97.2632 34.978L66.4379 45.7663L78.47 27.719C85.614 27.1556 91.2581 21.1722 91.2581 13.8875C91.2581 6.23171 85.0267 0.000366211 77.371 0.000366211C69.7152 0.000366211 63.4839 6.23171 63.4839 13.8875C63.4839 20.3648 67.9496 25.8046 73.9587 27.3322L61.5 46.0202L49.0413 27.3322C55.0504 25.8066 59.5161 20.3648 59.5161 13.8875C59.5161 6.23171 53.2848 0.000366211 45.629 0.000366211C37.9733 0.000366211 31.7419 6.23171 31.7419 13.8875C31.7419 21.1722 37.386 27.1556 44.53 27.719L56.5621 45.7663L25.7368 34.978C27.0203 32.8731 27.7742 30.4131 27.7742 27.7746C27.7742 20.1188 21.5429 13.8875 13.8871 13.8875C6.23134 13.8875 0 20.1188 0 27.7746C0 35.4303 6.23134 41.6617 13.8871 41.6617C17.3767 41.6617 20.5589 40.3583 23.001 38.2256L49.8249 47.6133H19.8387C14.3692 47.6133 9.91936 52.0631 9.91936 57.5326V107.129H0V113.081C0 118.551 4.44982 123 9.91936 123H113.081C118.55 123 123 118.551 123 113.081V107.129H113.081V57.5326ZM109.113 17.8552C114.582 17.8552 119.032 22.305 119.032 27.7746C119.032 33.2441 114.582 37.6939 109.113 37.6939C103.643 37.6939 99.1936 33.2441 99.1936 27.7746C99.1936 22.305 103.643 17.8552 109.113 17.8552ZM67.4516 13.8875C67.4516 8.41793 71.9014 3.96811 77.371 3.96811C82.8405 3.96811 87.2903 8.41793 87.2903 13.8875C87.2903 17.1152 85.7171 19.9601 83.3226 21.7714V17.8552H79.3548V13.8875H83.3226V9.91972H79.3548V5.95198H75.3871V9.91972H71.4194V13.8875H75.3871V21.8229H83.2611C81.6085 23.0529 79.583 23.8068 77.371 23.8068C71.9014 23.8068 67.4516 19.357 67.4516 13.8875ZM35.7097 13.8875C35.7097 8.41793 40.1595 3.96811 45.629 3.96811C51.0986 3.96811 55.5484 8.41793 55.5484 13.8875C55.5484 19.357 51.0986 23.8068 45.629 23.8068C40.1595 23.8068 35.7097 19.357 35.7097 13.8875ZM13.8871 37.6939C8.41756 37.6939 3.96774 33.2441 3.96774 27.7746C3.96774 22.305 8.41756 17.8552 13.8871 17.8552C16.1011 17.8552 18.1246 18.6091 19.7772 19.8391H11.9032V27.7746H7.93548V31.7423H11.9032V35.71H15.871V31.7423H19.8387V27.7746H15.871V23.8068H19.8387V19.8907C22.2332 21.7039 23.8065 24.5488 23.8065 27.7746C23.8065 33.2441 19.3566 37.6939 13.8871 37.6939ZM13.8871 57.5326C13.8871 54.2513 16.5574 51.581 19.8387 51.581H103.161C106.443 51.581 109.113 54.2513 109.113 57.5326V107.129H105.145V55.5488H17.8548V107.129H13.8871V57.5326ZM21.8226 107.129V59.5165H101.177V107.129H21.8226ZM69.4355 111.097V113.081H53.5645V111.097H69.4355ZM119.032 111.097V113.081C119.032 116.362 116.362 119.033 113.081 119.033H9.91936C6.63803 119.033 3.96774 116.362 3.96774 113.081V111.097H49.5968V117.049H73.4032V111.097H119.032Z" fill="black"/>
<path d="M74.8078 71.7789L70.4909 63.1431L61.5 65.4801L52.5091 63.1431L48.1922 71.7789L41.1792 74.0861L43.5797 83.323L41.1792 92.5599L48.1922 94.8671L52.5091 103.503L61.5 101.166L70.4909 103.503L74.8078 94.8671L81.8208 92.5599L79.4203 83.323L81.8208 74.0861L74.8078 71.7789ZM77.0436 89.9571L71.9987 91.6176L68.3801 98.8527L61.5 97.0673L54.6199 98.8527L51.0014 91.6176L45.9564 89.9571L47.6784 83.323L45.9564 76.6889L51.0014 75.0284L54.6199 67.7933L61.5 69.5787L68.3801 67.7933L71.9987 75.0284L77.0436 76.6889L75.3216 83.323L77.0436 89.9571Z" fill="#FAC213"/>
<path d="M52.3678 87.6905L54.7463 90.8633L70.6187 78.9645L68.2402 75.7917L52.3678 87.6905Z" fill="#FAC213"/>
<path d="M55.5484 79.3552C56.644 79.3552 57.5323 78.467 57.5323 77.3713C57.5323 76.2757 56.644 75.3875 55.5484 75.3875C54.4527 75.3875 53.5645 76.2757 53.5645 77.3713C53.5645 78.467 54.4527 79.3552 55.5484 79.3552Z" fill="#FAC213"/>
<path d="M67.4516 91.2584C68.5473 91.2584 69.4355 90.3702 69.4355 89.2745C69.4355 88.1789 68.5473 87.2906 67.4516 87.2906C66.356 87.2906 65.4677 88.1789 65.4677 89.2745C65.4677 90.3702 66.356 91.2584 67.4516 91.2584Z" fill="#FAC213"/>
<path d="M46.621 5.95203H44.6371C41.9013 5.95203 39.6774 8.17595 39.6774 10.9117C39.6774 13.6475 41.9013 15.8714 44.6371 15.8714H46.621C47.1665 15.8714 47.6129 16.3178 47.6129 16.8633C47.6129 17.4089 47.1665 17.8553 46.621 17.8553H44.6371C44.0915 17.8553 43.6452 17.4089 43.6452 16.8633V15.8714H39.6774V16.8633C39.6774 19.5991 41.9013 21.823 44.6371 21.823H46.621C49.3567 21.823 51.5806 19.5991 51.5806 16.8633C51.5806 14.1276 49.3567 11.9036 46.621 11.9036H44.6371C44.0915 11.9036 43.6452 11.4573 43.6452 10.9117C43.6452 10.3661 44.0915 9.91977 44.6371 9.91977H46.621C47.1665 9.91977 47.6129 10.3661 47.6129 10.9117V11.9036H51.5806V10.9117C51.5806 8.17595 49.3567 5.95203 46.621 5.95203Z" fill="black"/>
<path d="M109.113 31.7423H111.097C114.378 31.7423 117.048 29.072 117.048 25.7907C117.048 22.5094 114.378 19.8391 111.097 19.8391H105.145V35.7101H109.113V31.7423ZM109.113 23.8069H111.097C112.192 23.8069 113.081 24.6956 113.081 25.7907C113.081 26.8858 112.192 27.7746 111.097 27.7746H109.113V23.8069Z" fill="black"/>
</svg>
