<svg width="127" height="115" viewBox="0 0 127 115" fill="none" xmlns="http://www.w3.org/2000/svg">
<ellipse cx="102.5" cy="25.9614" rx="22.5" ry="20.4959" fill="#FAC213"/>
<path d="M27.72 61.4739H24.75V31.4471C24.75 26.5398 29.1184 22.5455 34.485 22.5455H55.6504L45.8122 13.5799L47.9119 11.6673L61.3346 23.8982L47.9366 36.1328L45.8329 34.2202L55.6545 25.2509H34.485C30.756 25.2509 27.72 28.0315 27.72 31.4471V61.4739ZM99 84.0194C99 87.4162 95.9681 90.1818 92.235 90.1818H62.8237L72.6619 81.22L70.5581 79.3036L57.1354 91.5345L70.5581 103.765L72.6619 101.849L62.8237 92.8873H92.235C97.6058 92.8873 101.97 88.908 101.97 84.0194V68.9891H99V84.0194ZM104.61 22.5455H96.36C94.9039 22.5455 93.72 21.467 93.72 20.1406C93.72 18.8142 94.9039 17.7358 96.36 17.7358H108.735V15.0303H101.97V10.7467H99V15.0303H96.36C93.2663 15.0303 90.75 17.3224 90.75 20.1406C90.75 22.9588 93.2663 25.2509 96.36 25.2509H104.61C106.066 25.2509 107.25 26.3293 107.25 27.6558C107.25 28.9822 106.066 30.0606 104.61 30.0606H92.235V32.7661H99V37.0497H101.974V32.7661H104.61C107.704 32.7661 110.22 30.4739 110.22 27.6558C110.22 24.8376 107.704 22.5455 104.61 22.5455ZM126.72 23.8982C126.72 37.076 114.947 47.7964 100.485 47.7964C86.0228 47.7964 74.25 37.076 74.25 23.8982C74.25 10.7204 86.0186 0 100.485 0C114.951 0 126.72 10.7204 126.72 23.8982ZM123.75 23.8982C123.75 12.2121 113.318 2.70545 100.485 2.70545C87.6521 2.70545 77.22 12.2121 77.22 23.8982C77.22 35.5842 87.6521 45.0909 100.485 45.0909C113.318 45.0909 123.75 35.5842 123.75 23.8982ZM35.937 91.9291C39.3071 89.3439 41.3078 85.5187 41.3078 81.4116C41.3078 73.8176 34.5345 67.6326 26.2103 67.6326C17.886 67.6326 11.1128 73.8176 11.1128 81.4116C11.1128 85.5187 13.1134 89.3439 16.4876 91.9291C6.64125 95.5101 0 104.254 0 114.08H2.97C2.97 104.528 10.0485 96.1338 20.1795 93.6576C20.7694 93.5148 21.2025 93.0601 21.2685 92.504C21.3386 91.9554 21.0334 91.4181 20.493 91.1588C16.533 89.2274 14.0745 85.4924 14.0745 81.4116C14.0745 75.3056 19.5154 70.3418 26.202 70.3418C32.8886 70.3418 38.3295 75.3056 38.3295 81.4116C38.3295 85.4924 35.871 89.2236 31.911 91.1588C31.3748 91.4218 31.0654 91.9554 31.1355 92.504C31.2056 93.0564 31.6387 93.5148 32.2245 93.6576C42.3885 96.1376 49.4917 104.54 49.4917 114.08H52.4617C52.47 104.261 45.8081 95.5138 35.937 91.9291Z" fill="black"/>
</svg>
