<svg width="83" height="115" viewBox="0 0 83 115" fill="none" xmlns="http://www.w3.org/2000/svg">
<path d="M63.7975 75.5589C62.5121 75.5589 61.4693 76.6012 61.4693 77.8871V88.2551H4.65633V16.8291H61.4693V27.5419C61.4693 28.828 62.5121 29.8701 63.7975 29.8701C65.0833 29.8701 66.1257 28.828 66.1257 27.5419V2.32816C66.1257 1.04232 65.0833 0 63.7975 0H2.32816C1.04232 0 0 1.04232 0 2.32816V111.752C0 113.037 1.04232 114.08 2.32816 114.08H63.7975C65.0833 114.08 66.1257 113.037 66.1257 111.752V77.8871C66.1257 76.6012 65.0836 75.5589 63.7975 75.5589ZM61.4693 4.65633V12.1728H4.65633V4.65633H61.4693ZM4.65633 109.424V92.9114H61.4693V109.424H4.65633Z" fill="white"/>
<path d="M33.0809 104.526C35.0244 104.526 36.5999 102.949 36.5999 101.003C36.5999 99.0573 35.0244 97.48 33.0809 97.48C31.1374 97.48 29.5619 99.0573 29.5619 101.003C29.5619 102.949 31.1374 104.526 33.0809 104.526Z" fill="white"/>
<path d="M44.6071 58.0011C44.1629 56.7932 42.8242 56.1747 41.6183 56.6203L40.1192 57.1732C39.9012 56.8256 39.6645 56.4901 39.4107 56.1684L40.433 54.9393C41.256 53.9501 41.1224 52.4803 40.1343 51.6566C39.1467 50.8334 37.6778 50.9682 36.8553 51.9574L35.8358 53.1827C35.4752 52.9914 35.1034 52.8172 34.7185 52.6642L34.989 51.0955C35.2074 49.8267 34.3574 48.6214 33.0907 48.403C31.8234 48.1846 30.6188 49.0358 30.4 50.3047L30.1299 51.8736C29.7162 51.8885 29.3069 51.9281 28.903 51.9879L28.3528 50.4921C27.9086 49.2842 26.5699 48.6659 25.3635 49.111C24.1566 49.5564 23.5387 50.8962 23.9829 52.1041L24.5349 53.6044C24.1875 53.8227 23.8523 54.0595 23.5308 54.3142L22.3036 53.2912C21.3164 52.4675 19.8471 52.6023 19.0246 53.5916C18.2016 54.581 18.3352 56.0508 19.3233 56.8743L20.547 57.8942C20.3556 58.2553 20.1815 58.6278 20.029 59.0134L18.4616 58.7431C17.1944 58.5247 15.9898 59.3761 15.7714 60.6447C15.5528 61.9133 16.4026 63.1189 17.6698 63.3372L19.2367 63.6073C19.2516 64.021 19.2912 64.4308 19.3503 64.8349L17.8561 65.3863C16.6492 65.8316 16.0313 67.1715 16.4755 68.3793C16.9197 69.5872 18.2584 70.2058 19.4648 69.7602L20.9637 69.2072C21.1816 69.5546 21.4179 69.8903 21.6722 70.2118L20.6499 71.4409C19.8273 72.4304 19.961 73.9001 20.9491 74.7236C21.9367 75.5471 23.405 75.4123 24.228 74.423L25.2471 73.1975C25.6077 73.3889 25.98 73.563 26.3648 73.716L26.0943 75.2851C25.8759 76.5538 26.7255 77.7593 27.9927 77.9774C29.2599 78.196 30.4645 77.3444 30.6829 76.0758L30.9534 74.5068C31.3671 74.4917 31.7759 74.4521 32.1799 74.3925L32.73 75.8884C33.1742 77.096 34.5129 77.7148 35.7194 77.2692C36.9263 76.8241 37.5442 75.484 37.1 74.2764L36.548 72.7758C36.8953 72.5577 37.2306 72.3207 37.5521 72.0662L38.7798 73.089C39.7669 73.9127 41.2357 73.7779 42.0587 72.7884C42.8813 71.799 42.7476 70.3292 41.7596 69.5057L40.5359 68.486C40.7273 68.1246 40.9014 67.7524 41.0544 67.3668L42.6212 67.6371C43.8884 67.8555 45.093 67.0041 45.3119 65.7355C45.5305 64.4666 44.6803 63.2613 43.4135 63.043L41.8462 62.7731C41.8315 62.3589 41.7922 61.9494 41.7326 61.545L43.2272 60.9939C44.4332 60.5488 45.0514 59.2087 44.6071 58.0011ZM37.1 64.3209C36.476 67.9414 33.0262 70.3799 29.4098 69.7567C25.7935 69.1334 23.3589 65.6808 23.9827 62.0602C24.6066 58.4395 28.0565 56.001 31.6733 56.624C35.2891 57.2472 37.7242 60.7004 37.1 64.3209Z" fill="#FAC213"/>
<path d="M80.0283 50.1919H77.444C77.298 49.3338 77.0762 48.5019 76.78 47.705L79.0186 46.4105C80.1317 45.7668 80.5128 44.3429 79.8688 43.2298C79.2258 42.1169 77.8021 41.7358 76.6881 42.3796L74.4477 43.6747C73.8996 43.0149 73.2922 42.407 72.6329 41.8585L73.9292 39.61C74.5718 38.4959 74.1893 37.0723 73.0752 36.4302C71.9612 35.7874 70.538 36.1701 69.8954 37.2839L68.604 39.5234C67.8096 39.2279 66.9801 39.006 66.1254 38.8605V36.2698C66.1254 34.9839 65.0826 33.9416 63.7973 33.9416C62.5114 33.9416 61.4686 34.9839 61.4686 36.2698V38.8605C60.6137 39.006 59.7844 39.2279 58.9901 39.5234L57.6986 37.2839C57.0561 36.1701 55.6329 35.7874 54.5188 36.4302C53.4048 37.0723 53.0223 38.4959 53.6649 39.61L54.9612 41.8585C54.3018 42.4068 53.6944 43.0149 53.1464 43.6747L50.906 42.3796C49.792 41.7358 48.3683 42.1169 47.7253 43.2298C47.0813 44.3429 47.4624 45.7668 48.5755 46.4105L50.814 47.705C50.5181 48.5019 50.296 49.3338 50.15 50.1919H47.5658C46.2799 50.1919 45.2376 51.2343 45.2376 52.5201C45.2376 53.8059 46.2799 54.8483 47.5658 54.8483H50.15C50.296 55.7064 50.5179 56.5383 50.814 57.3352L48.5755 58.6297C47.4624 59.2734 47.0813 60.6973 47.7253 61.8104C48.3683 62.9233 49.792 63.3044 50.906 62.6606L53.1464 61.3653C53.6944 62.0251 54.3018 62.6329 54.9612 63.1815L53.6649 65.43C53.0223 66.544 53.4048 67.9677 54.5188 68.6098C55.6329 69.2526 57.0561 68.8699 57.6986 67.7561L58.9901 65.5166C59.7844 65.8118 60.614 66.0339 61.4686 66.1794V68.7702C61.4686 70.0558 62.5114 71.0984 63.7973 71.0984C65.0826 71.0984 66.1254 70.0558 66.1254 68.7702V66.1794C66.9803 66.0339 67.8096 65.812 68.604 65.5166L69.8954 67.7561C70.538 68.8699 71.9612 69.2526 73.0752 68.6098C74.1893 67.9677 74.5718 66.544 73.9292 65.43L72.6329 63.1815C73.2922 62.6332 73.8996 62.0251 74.4477 61.3653L76.6881 62.6606C77.8021 63.3044 79.2258 62.9233 79.8688 61.8104C80.5128 60.6973 80.1317 59.2734 79.0186 58.6297L76.78 57.3352C77.0759 56.5383 77.298 55.7064 77.444 54.8483H80.0283C81.3141 54.8483 82.3564 53.8059 82.3564 52.5201C82.3564 51.2343 81.3141 50.1919 80.0283 50.1919ZM72.987 52.5201C72.987 57.5948 68.8645 61.7231 63.7975 61.7231C58.73 61.7231 54.6075 57.5948 54.6075 52.5201C54.6075 47.4454 58.73 43.3171 63.7975 43.3171C68.8645 43.3171 72.987 47.4454 72.987 52.5201Z" fill="#FAC213"/>
</svg>
