<svg width="116" height="115" viewBox="0 0 116 115" fill="none" xmlns="http://www.w3.org/2000/svg">
<rect x="17" y="47" width="32" height="39" fill="#FAC213"/>
<path d="M26.4101 39.7579L22.3312 27.0039H45.6469L40.647 39.7579H26.4101ZM8.54189 66.6098C8.54189 56.7544 13.9894 48.2428 22.1734 44.0004H45.5154C53.6993 48.2428 59.3047 56.7544 59.3047 66.6098C59.3047 80.5759 47.9362 91.9598 33.9891 91.9598C19.8837 91.9603 8.54189 80.5763 8.54189 66.6098ZM36.2788 72.6973C36.2788 74.1991 34.9106 74.9634 32.9365 74.9634C30.6472 74.9634 28.5415 74.1991 27.0155 73.4348L25.9629 77.5192C27.3049 78.2835 29.5946 78.8893 32.0154 79.0478V82.3942H35.4893V78.7575C39.5944 78.1513 41.8579 75.4107 41.8579 72.2223C41.8579 69.0339 40.1736 67.0838 35.937 65.5553C32.9107 64.5012 31.7003 63.737 31.7003 62.5249C31.7003 61.6026 32.4635 60.5486 34.7265 60.5486C37.3056 60.5486 38.9632 61.3128 39.8842 61.7606L40.9369 57.808C39.7264 57.2017 38.2 56.7539 35.7792 56.5959V53.4075H32.3053V56.7277C28.5158 57.4919 26.2527 59.916 26.2527 63.1049C26.2527 66.6098 28.8318 68.4281 32.6213 69.6402C35.1995 70.5629 36.4104 71.3267 36.2788 72.6973ZM90.451 41.0179C89.6432 40.1758 89.6699 38.837 90.5108 38.0276C91.3518 37.2182 92.6888 37.2453 93.4971 38.0875C94.3054 38.9296 94.2783 40.2684 93.4373 41.0778C92.5963 41.8872 91.2589 41.86 90.451 41.0179ZM104.554 37.0634C105.395 36.2544 105.422 34.9157 104.614 34.0731C103.806 33.2305 102.469 33.2038 101.628 34.0132C100.787 34.8222 100.76 36.1609 101.568 37.0035C102.376 37.8461 103.713 37.8728 104.554 37.0634ZM78.156 25.1492C78.997 24.3402 79.0241 23.0015 78.2158 22.1589C77.4079 21.3168 76.071 21.2896 75.2296 22.099C74.3881 22.9084 74.3614 24.2467 75.1698 25.0893C75.9781 25.9319 77.315 25.9586 78.156 25.1492ZM109.077 26.6846C109.918 25.8757 109.945 24.5369 109.137 23.6943C108.328 22.8517 106.992 22.825 106.151 23.6345C105.309 24.4439 105.282 25.7822 106.091 26.6247C106.899 27.4669 108.236 27.4936 109.077 26.6846ZM93.0577 10.3258C93.8987 9.5168 93.9258 8.17806 93.1175 7.33547C92.3097 6.49334 90.9727 6.46616 90.1313 7.27558C89.2898 8.085 89.2632 9.42328 90.0715 10.2659C90.8798 11.108 92.2163 11.1347 93.0577 10.3258ZM104.827 15.1325C105.668 14.3236 105.696 12.9848 104.887 12.1422C104.079 11.3001 102.742 11.2729 101.901 12.0823C101.06 12.8918 101.033 14.2301 101.841 15.0726C102.649 15.9148 103.986 15.9415 104.827 15.1325ZM83.011 14.7773C83.852 13.9684 83.8791 12.6296 83.0708 11.7871C82.2629 10.9449 80.926 10.9177 80.0845 11.7272C79.2431 12.5366 79.2164 13.8749 80.0247 14.7175C80.8331 15.5601 82.1695 15.5863 83.011 14.7773ZM86.5732 27.4789L79.043 34.7226L78.3161 37.8654L81.4813 37.2642L89.0115 30.0204C91.1448 31.2265 93.9718 30.951 95.9179 29.0788C98.2872 26.7998 98.3603 23.1452 96.0844 20.7727C93.8085 18.4002 90.1589 18.3269 87.7896 20.6059C85.8436 22.4786 85.3743 25.2114 86.5732 27.4789ZM115.92 24.2025C115.92 34.1864 109.847 42.7901 101.213 46.5074V53.8152H94.2051V94.7133C94.2051 102.585 87.8692 108.929 80.0082 108.929H67.9915V114.08H0V98.0408H68.0885V104.253L80.3606 104.23C85.6402 104.23 89.864 100 89.864 94.7133V53.8152H82.8104V46.53C74.1484 42.8256 68.0504 34.2067 68.0504 24.2025C68.0504 10.809 78.8447 0 92.22 0C105.478 0 116.39 10.8086 115.92 24.2025ZM110.297 14.7041C105.064 4.71648 92.7085 0.859635 82.7345 6.09991C72.7604 11.3402 68.9088 23.7128 74.142 33.7004C79.3751 43.688 91.7309 47.5449 101.705 42.3046C111.679 37.0643 115.531 24.6917 110.297 14.7041Z" fill="black"/>
</svg>
