<svg width="125" height="115" viewBox="0 0 125 115" fill="none" xmlns="http://www.w3.org/2000/svg">
<path d="M62.3884 74.6159C60.8768 74.6159 59.6527 75.8415 59.6527 77.3531C59.6527 78.8647 60.877 80.0908 62.3884 80.0908C63.9005 80.0908 65.1258 78.8647 65.1258 77.3531C65.1258 75.8415 63.9005 74.6159 62.3884 74.6159Z" fill="white"/>
<path d="M122.23 0H2.54646C1.14005 0 0 1.14005 0 2.54646V85.9319C0 87.3381 1.14005 88.4784 2.54646 88.4784H47.036L42.5817 99.283H34.2089C32.8028 99.283 31.6625 100.423 31.6625 101.829V111.534C31.6625 112.94 32.8028 114.08 34.2089 114.08H90.568C91.9741 114.08 93.1144 112.94 93.1144 111.534V101.829C93.1144 100.423 91.9741 99.283 90.568 99.283H82.1955L77.741 88.4784H122.23C123.636 88.4784 124.777 87.3381 124.777 85.9319V2.54646C124.777 1.1398 123.636 0 122.23 0ZM119.684 5.09293V66.4375H5.09293V5.09293H119.684ZM88.0215 108.987H36.7554V104.376H88.0215V108.987ZM76.6865 99.283H48.0905L52.5447 88.4784H72.2319L76.6865 99.283ZM5.09293 83.3855V71.5304H119.684V83.3855H5.09293Z" fill="white"/>
<path d="M82.3032 35.6723C82.3032 34.2662 81.1629 33.1259 79.7565 33.1261L77.0409 33.1264C76.8874 32.242 76.6597 31.3831 76.357 30.5595L78.7051 29.2038C79.9228 28.5002 80.3401 26.9428 79.6366 25.7251C78.933 24.5074 77.3761 24.0895 76.1581 24.7933L73.8031 26.1537C73.2345 25.474 72.6065 24.846 71.9269 24.2772L73.2872 21.9225C73.9908 20.7047 73.5737 19.1471 72.356 18.4437C71.1383 17.7399 69.5808 18.1573 68.8772 19.375L67.5213 21.7228C66.6977 21.42 65.8388 21.1921 64.9544 21.0383V18.3241C64.9544 16.9176 63.8144 15.7776 62.408 15.7776C62.4016 15.7776 62.395 15.7786 62.3886 15.7786C62.3822 15.7786 62.3756 15.7776 62.3693 15.7776C60.9631 15.7776 59.8228 16.9176 59.8228 18.3241V21.0381C58.9384 21.1919 58.0795 21.4195 57.256 21.7226L55.9 19.3747C55.1964 18.157 53.639 17.7396 52.4212 18.4435C51.2035 19.1468 50.7864 20.7045 51.49 21.9222L52.8503 24.2769C52.1707 24.8458 51.5427 25.4738 50.9741 26.1534L48.6191 24.7931C47.4011 24.0892 45.8442 24.5071 45.1407 25.7248C44.4371 26.9426 44.8544 28.5 46.0721 29.2036L48.4202 30.5593C48.1175 31.3828 47.8898 32.2417 47.7363 33.1261L45.0207 33.1259C43.6143 33.1256 42.474 34.2659 42.474 35.6721C42.474 37.0785 43.6143 38.2185 45.0207 38.2185L47.7363 38.2183C47.8896 39.1024 48.1175 39.9613 48.4202 40.7849L46.0721 42.1409C44.8544 42.8444 44.4371 44.4016 45.1407 45.6196C45.8442 46.837 47.4011 47.2549 48.6191 46.5511L50.9741 45.1908C51.5427 45.8707 52.1707 46.4986 52.8503 47.0672L51.49 49.4222C50.7864 50.6399 51.2035 52.1973 52.4212 52.9007C53.639 53.6045 55.1964 53.1872 55.9 51.9697L57.256 49.6216C58.0795 49.9244 58.9384 50.1525 59.8228 50.3061V53.0201C59.8228 54.4265 60.9631 55.5666 62.3693 55.5666C62.3756 55.5666 62.3822 55.5656 62.3886 55.5656C62.395 55.5656 62.4016 55.5666 62.408 55.5666C63.8144 55.5666 64.9544 54.4265 64.9544 53.0201V50.3061C65.8388 50.1525 66.6977 49.9246 67.5213 49.6216L68.8772 51.9697C69.5808 53.1872 71.1383 53.6045 72.356 52.9007C73.5737 52.1973 73.9908 50.6399 73.2872 49.4222L71.9269 47.0672C72.6065 46.4986 73.2345 45.8707 73.8031 45.1908L76.1581 46.5511C77.3761 47.2549 78.9332 46.837 79.6366 45.6196C80.3401 44.4016 79.9228 42.8444 78.7051 42.1409L76.357 40.7849C76.6597 39.9613 76.8874 39.1024 77.0409 38.2183L79.7565 38.2185C81.1629 38.2188 82.3032 37.0787 82.3032 35.6723ZM62.4077 45.4365C62.4013 45.4365 62.3947 45.436 62.3884 45.436C62.382 45.436 62.3754 45.4365 62.369 45.4365C56.9855 45.4365 52.6059 41.0566 52.6059 35.6723C52.6059 30.2884 56.9855 25.9082 62.369 25.9082C62.3754 25.9082 62.382 25.9087 62.3884 25.9087C62.3947 25.9087 62.4013 25.9082 62.4077 25.9082C67.7912 25.9082 72.1708 30.2884 72.1708 35.6723C72.1708 41.0563 67.7912 45.4365 62.4077 45.4365Z" fill="#FAC213"/>
</svg>
