<svg width="80" height="36" viewBox="0 0 80 36" fill="none" xmlns="http://www.w3.org/2000/svg">
<path d="M8.87648 17.2644C10.807 17.287 12.6491 17.6462 14.3148 18.6651C16.0866 19.7485 16.9719 21.3604 16.8657 23.4173C16.7464 25.6234 15.6594 27.2855 13.5965 28.1302C11.4035 29.0274 9.14135 29.0453 7.02355 27.9142C5.1909 26.9371 4.91887 25.8859 5.20164 24.546C5.28874 24.1344 5.38896 23.9876 5.85667 24.1583C7.55792 24.7835 9.39249 24.9558 11.1804 24.6582C11.8832 24.5472 12.543 24.3599 12.747 23.5486C12.9033 22.9222 12.5203 22.2135 11.7925 21.7481C8.84426 19.8642 4.49173 22.0345 4.21731 25.5256C3.9071 29.4522 7.40296 32.1248 11.0945 30.7944C11.5959 30.5955 12.0527 30.2986 12.438 29.9211C12.8961 29.5047 13.3459 29.476 13.8148 29.9151C14.3887 30.4532 15.138 30.6453 15.8503 30.9066C16.7082 31.2204 16.8048 31.5234 16.1987 32.225C15.1483 33.4438 13.753 34.3154 12.197 34.7246C10.4178 35.2297 8.53988 35.2777 6.7372 34.8642C0.756042 33.4718 -1.95117 26.2952 1.5626 21.1098C3.30337 18.5398 5.75287 17.2453 8.87648 17.2644Z" fill="#A81F24"/>
<path d="M32.9001 22.7228C32.9001 26.6231 32.8929 30.5235 32.9108 34.4238C32.9108 34.8486 32.7987 34.9464 32.387 34.9381C31.0865 34.9106 29.7836 34.9142 28.4831 34.9381C28.112 34.944 27.9772 34.8736 27.9784 34.4608C27.9927 27.6266 27.9486 20.7911 28.0214 13.9581C28.0357 12.555 29.0415 11.5778 30.2764 10.9347C30.9111 10.6054 31.6079 10.5028 32.3226 10.4574C32.7688 10.4324 32.9192 10.5302 32.9132 11.0182C32.8905 14.9269 32.9001 18.8272 32.9001 22.7228Z" fill="#A81F24"/>
<path d="M60.8549 34.1602C60.8549 34.4716 60.7523 34.4955 60.5137 34.4895C59.4184 34.4621 58.3219 34.4251 57.2254 34.4263C56.8436 34.4263 56.8782 34.2258 56.8782 33.9693C56.8854 30.4245 56.8221 26.8821 56.599 23.3421C56.5346 22.3017 56.2697 21.451 55.2043 21.1205C54.097 20.7781 53.164 21.1837 52.3849 21.9855C52.1491 22.225 51.9764 22.5194 51.8826 22.8422C51.8074 23.1082 51.7394 23.1226 51.5306 22.9245C50.0201 21.4927 50.2027 19.3905 51.9649 18.2462C54.0934 16.8646 58.1895 16.6546 59.9851 19.8713C60.6783 21.1121 60.7952 22.4747 60.7952 23.8599C60.7952 25.4193 60.8334 26.9489 60.8334 28.5131L60.8549 34.1602Z" fill="#A81F24"/>
<path d="M71.6411 34.2185C71.6411 34.5919 71.6125 34.7315 71.183 34.7077C70.1629 34.6504 69.1392 34.6385 68.1178 34.6516C67.7205 34.6516 67.6239 34.5323 67.631 34.1517C67.6895 30.6642 67.6215 27.1778 67.3924 23.6963C67.3614 23.219 67.3793 22.7251 67.143 22.286C66.6586 21.3816 65.58 20.9986 64.4883 21.3578C63.6353 21.6393 62.9945 22.1751 62.6807 23.0389C62.5865 23.299 62.5054 23.3873 62.3085 23.126C61.8718 22.5437 61.1058 22.1715 61.2633 21.2253C61.4506 20.0978 61.7095 19.0777 62.7977 18.4179C64.9143 17.1365 69.0294 16.8275 70.8286 20.1933C71.5278 21.4997 71.5743 22.9267 71.554 24.3692C71.5338 25.7616 71.591 27.0752 71.591 28.4676L71.6411 34.2185Z" fill="#A81F24"/>
<path d="M78.6246 25.3108C78.6246 28.1683 78.6126 31.0271 78.6365 33.8858C78.6365 34.3631 78.5017 34.474 78.0459 34.4621C76.8194 34.4311 75.5928 34.4406 74.3663 34.4621C74.0334 34.4621 73.9165 34.381 73.9177 34.0314C73.9272 29.0942 73.901 24.1559 73.9356 19.2187C73.9499 17.219 76.5771 15.4269 78.4241 16.0712C78.7534 16.1905 78.6174 16.4387 78.6174 16.6272C78.6329 19.5194 78.6246 22.4151 78.6246 25.3108Z" fill="#A81F24"/>
<path d="M36.9233 16.694C36.9233 16.2812 37.0641 16.1583 37.4268 16.0903C39.664 15.6644 41.5885 17.2572 41.6147 19.5277C41.668 24.3909 41.7388 29.2541 41.8271 34.1173C41.8366 34.6196 41.6959 34.7377 41.2114 34.7234C40.004 34.6864 38.7942 34.6983 37.5855 34.7234C37.2157 34.7306 37.0689 34.6554 37.0725 34.2461C37.0892 31.3122 37.0152 28.5299 37.0152 25.596L36.9233 16.694Z" fill="#A81F24"/>
<path d="M23.9791 34.4512C23.9791 34.8377 23.8872 34.9523 23.4911 34.9439C22.2287 34.9177 20.964 34.9212 19.7005 34.9439C19.3497 34.9499 19.2734 34.8437 19.271 34.5072C19.24 30.8149 19.2002 27.123 19.1517 23.4314C19.1397 22.5592 19.1183 21.6883 19.0777 20.8185C18.9942 19.0455 20.0322 17.4371 21.7324 16.7332C22.2133 16.5331 22.7281 16.427 23.2489 16.4206C23.639 16.4146 23.7834 16.5554 23.781 16.9778C23.7607 19.8902 23.911 22.6618 23.911 25.5743" fill="#A81F24"/>
<path d="M50.0776 26.054C50.0776 28.692 50.0693 31.33 50.086 33.968C50.086 34.382 50.0156 34.555 49.5479 34.5407C48.3774 34.5061 47.2046 34.5204 46.0317 34.5407C45.7239 34.5407 45.6248 34.4608 45.6189 34.1375C45.5513 30.3147 45.4717 26.4915 45.3803 22.6679C45.348 21.1837 45.3349 19.6982 45.255 18.2163C45.224 17.6329 45.4101 17.5076 45.9601 17.5279C47.1676 17.5709 48.3786 17.5577 49.5872 17.5279C49.9833 17.5196 50.0848 17.6472 50.0824 18.029C50.0693 20.7028 50.0776 23.379 50.0776 26.054Z" fill="#A81F24"/>
<path d="M26.3104 0.346875C27.0545 0.318558 27.7974 0.429014 28.501 0.672599C29.6512 1.08184 30.2633 1.90868 30.441 3.09465C30.4649 3.25572 30.3217 3.50986 30.5878 3.56474C30.8539 3.61963 30.9744 3.41799 31.1044 3.22231C31.5895 2.49554 32.1702 1.83738 32.8309 1.26558C33.6458 0.549707 34.5716 0.0724546 35.6777 0.00444632C35.9375 -0.0122287 36.1982 0.0180846 36.4472 0.093931C36.7551 0.185802 36.7563 0.288412 36.5117 0.473347C34.722 1.83113 33.4 3.59099 32.2033 5.46063C31.5614 6.46524 30.8395 7.40781 29.9089 8.16783C29.1584 8.7811 28.3352 9.21421 27.3234 9.17125C27.0335 9.15813 26.8879 9.11756 27.1039 8.80616C27.1957 8.67253 27.315 8.48163 27.2828 8.35158C27.1146 7.66314 27.5393 7.59155 28.05 7.46985C28.8852 7.2706 29.4877 6.72057 29.9232 5.99157C29.9924 5.87225 30.1618 5.75294 30.0497 5.61692C30.0091 5.56562 29.8111 5.62408 29.6917 5.65391C29.0081 5.82691 28.3268 6.01185 27.6157 6.0381C27.0824 6.05719 26.8091 5.89492 26.7972 5.27927C26.7698 3.7282 26.2603 2.29645 25.4848 0.963723C25.3869 0.794298 25.1507 0.620101 25.2462 0.438745C25.3416 0.25739 25.6148 0.362385 25.8105 0.34926C25.9752 0.338522 26.1434 0.346875 26.3104 0.346875Z" fill="#A81F24"/>
<path d="M73.383 11.3546C73.3886 10.4975 73.5928 9.65334 73.9796 8.88844C74.5618 7.77644 75.4758 7.21806 76.7369 7.27891C78.1066 7.3493 79.3964 8.26801 79.7746 9.45398C80.1696 10.6901 79.7508 11.7555 78.8643 12.5883C78.2558 13.1598 77.4146 13.4235 76.5973 13.6085C75.6428 13.8268 74.6513 13.9318 73.8138 14.5057C73.6288 14.6322 73.6527 14.5057 73.6348 14.3959C73.4575 13.3921 73.3732 12.374 73.383 11.3546Z" fill="#A81F24"/>
<path d="M18.0673 12.8199C17.9983 11.7602 18.1452 10.6975 18.4992 9.69628C19.1614 7.90659 21.2362 7.10719 22.9591 7.93403C24.3992 8.62485 24.9528 11.7043 23.1977 12.8438C22.39 13.3652 21.4975 13.6646 20.592 13.9462C19.8832 14.1657 19.1733 14.3805 18.473 14.6263C18.2343 14.7086 18.152 14.7038 18.1448 14.4306C18.1293 13.8937 18.0935 13.3556 18.0673 12.8199Z" fill="#A81F24"/>
<path d="M42.0991 12.2162C42.0537 12.9559 42.0036 13.6945 41.9666 14.4354C41.9571 14.6406 41.9427 14.7372 41.6886 14.6406C40.4084 14.1562 39.1043 13.7267 37.8384 13.2089C36.4675 12.6469 35.8852 11.7592 35.9711 10.5577C36.0666 9.21783 36.9256 8.17146 38.2441 7.77892C40.4287 7.12986 42.1468 8.39815 42.1504 10.6639V12.215L42.0991 12.2162Z" fill="#A81F24"/>
</svg>
