<svg width="164" height="153" viewBox="0 0 164 153" fill="none" xmlns="http://www.w3.org/2000/svg">
<path d="M136.034 136.034H38.0897C32.0794 136.034 27.207 131.161 27.207 125.151V27.2067C27.207 21.1964 32.0794 16.324 38.0897 16.324H136.034C142.044 16.324 146.917 21.1964 146.917 27.2067V125.151C146.917 131.161 142.044 136.034 136.034 136.034Z" fill="#201D1F"/>
<path d="M125.151 136.034H27.2069C21.1966 136.034 16.3242 131.161 16.3242 125.151V27.2067C16.3242 21.1964 21.1966 16.324 27.2069 16.324H125.151C131.161 16.324 136.034 21.1964 136.034 27.2067V125.151C136.034 131.161 131.161 136.034 125.151 136.034Z" fill="#686868"/>
<path d="M114.269 119.71H38.0898C35.0845 119.71 32.6484 117.273 32.6484 114.268V38.0894C32.6484 35.0841 35.0845 32.6481 38.0898 32.6481H114.269C117.274 32.6481 119.71 35.0841 119.71 38.0894V114.268C119.71 117.273 117.274 119.71 114.269 119.71Z" fill="#201D1F"/>
<path d="M65.2965 32.6481C59.2862 32.6481 54.4138 37.5205 54.4138 43.5308C48.4035 43.5308 43.5311 48.4031 43.5311 54.4134C37.5208 54.4134 32.6484 59.2858 32.6484 65.2961V76.1788V87.0615C32.6484 93.0718 37.5208 97.9442 43.5311 97.9442C43.5311 103.954 48.4035 108.827 54.4138 108.827C54.4138 114.837 59.2862 119.71 65.2965 119.71C71.3068 119.71 76.1792 114.837 76.1792 108.827V43.5308C76.1792 37.5205 71.3068 32.6481 65.2965 32.6481Z" fill="#FAC213"/>
<path d="M87.0611 119.71C93.0715 119.71 97.9438 114.837 97.9438 108.827C103.954 108.827 108.827 103.954 108.827 97.9442C114.837 97.9442 119.709 93.0718 119.709 87.0615V76.1788V65.2961C119.709 59.2858 114.837 54.4134 108.827 54.4134C108.827 48.4031 103.954 43.5308 97.9438 43.5308C97.9438 37.5205 93.0715 32.6481 87.0611 32.6481C81.0508 32.6481 76.1785 37.5205 76.1785 43.5308V108.827C76.1785 114.837 81.0508 119.71 87.0611 119.71Z" fill="#FAC213"/>
<path d="M111.318 51.9216C110.295 46.415 105.942 42.0626 100.436 41.0389C99.2617 34.7239 93.7112 29.9274 87.0612 29.9274C82.616 29.9274 78.6625 32.0709 76.1785 35.3782C73.6946 32.0709 69.7411 29.9274 65.2958 29.9274C58.6458 29.9274 53.0953 34.7239 51.9214 41.0389C46.4147 42.0626 42.0623 46.415 41.0387 51.9216C34.7237 53.0956 29.9271 58.6464 29.9271 65.2961V87.0614C29.9271 93.7111 34.7237 99.262 41.0387 100.436C42.0623 105.943 46.4147 110.295 51.9214 111.319C53.0953 117.634 58.6458 122.43 65.2958 122.43C69.7411 122.43 73.6946 120.287 76.1785 116.979C78.6625 120.287 82.616 122.43 87.0612 122.43C93.7112 122.43 99.2617 117.634 100.436 111.319C105.942 110.295 110.295 105.943 111.318 100.436C117.633 99.262 122.43 93.7111 122.43 87.0614V65.2961C122.43 58.6464 117.633 53.0956 111.318 51.9216ZM108.827 63.4824C109.827 63.4824 110.64 64.2962 110.64 65.2961C110.64 66.2959 109.826 67.1097 108.827 67.1097C107.827 67.1097 107.013 66.2959 107.013 65.2961C107.013 64.2962 107.826 63.4824 108.827 63.4824ZM87.0612 74.3651C88.0614 74.3651 88.8749 75.1789 88.8749 76.1788C88.8749 77.1786 88.0611 77.9924 87.0612 77.9924C86.0614 77.9924 85.2475 77.1786 85.2475 76.1788C85.2475 75.1789 86.061 74.3651 87.0612 74.3651ZM43.5305 88.8751C42.5303 88.8751 41.7168 88.0613 41.7168 87.0614C41.7168 86.0613 42.5306 85.2478 43.5305 85.2478C44.5303 85.2478 45.3441 86.0616 45.3441 87.0614C45.3441 88.0616 44.5307 88.8751 43.5305 88.8751ZM65.2958 77.9924C64.2957 77.9924 63.4822 77.1786 63.4822 76.1788C63.4822 75.1789 64.296 74.3651 65.2958 74.3651C66.2957 74.3651 67.1095 75.1789 67.1095 76.1788C67.1095 77.1786 66.296 77.9924 65.2958 77.9924ZM68.0165 116.521V79.8C69.116 78.9726 69.8302 77.6605 69.8302 76.1788C69.8302 73.6744 67.8002 71.6444 65.2958 71.6444C62.7915 71.6444 60.7615 73.6744 60.7615 76.1788C60.7615 77.6608 61.4757 78.9729 62.5752 79.8V95.6914C61.7236 95.3894 60.8081 95.2235 59.8545 95.2235C58.3544 95.2235 57.1338 94.0029 57.1338 92.5028V90.6827C58.2333 89.8552 58.9475 88.5432 58.9475 87.0614C58.9475 84.5571 56.9175 82.5271 54.4132 82.5271C51.9088 82.5271 49.8788 84.5574 49.8788 87.0614C49.8788 88.5435 50.593 89.8556 51.6925 90.6827V92.5028C51.6925 97.0035 55.3542 100.665 59.8545 100.665C61.3546 100.665 62.5752 101.885 62.5752 103.385V116.521C59.4087 115.398 57.1338 112.374 57.1338 108.827V106.106H54.4132C49.9128 106.106 46.2511 102.445 46.2511 97.9441V90.6827C47.3506 89.8552 48.0648 88.5432 48.0648 87.0614C48.0648 84.5571 46.0349 82.5271 43.5305 82.5271C41.0261 82.5271 38.9961 84.5574 38.9961 87.0614C38.9961 88.5435 39.7103 89.8556 40.8098 90.6827V94.7552C37.6433 93.6322 35.3685 90.6078 35.3685 87.0611V78.8991H50.792C51.6194 79.9986 52.9314 80.7128 54.4132 80.7128C56.9175 80.7128 58.9475 78.6825 58.9475 76.1784C58.9475 73.674 56.9175 71.6441 54.4132 71.6441C52.9311 71.6441 51.6194 72.3583 50.792 73.4577H35.3685V65.2957C35.3685 61.749 37.6433 58.725 40.8098 57.6017V59.8547C40.8098 64.3554 44.4715 68.0168 48.9718 68.0168H50.792C51.6194 69.1162 52.9314 69.8304 54.4132 69.8304C56.9175 69.8304 58.9475 67.8001 58.9475 65.2961C58.9475 62.7917 56.9175 60.7617 54.4132 60.7617C52.9311 60.7617 51.6194 61.4759 50.792 62.5754H48.9718C47.4717 62.5754 46.2511 61.3548 46.2511 59.8547V54.4134C46.2511 50.8667 48.526 47.8426 51.6925 46.7193V48.9721C51.6925 53.4727 55.3542 57.1341 59.8545 57.1341H62.5752V61.6749C61.4757 62.5023 60.7615 63.8143 60.7615 65.2961C60.7615 67.8005 62.7915 69.8304 65.2958 69.8304C67.8002 69.8304 69.8302 67.8001 69.8302 65.2961C69.8302 63.814 69.116 62.502 68.0165 61.6749V47.1523C69.116 46.3248 69.8302 45.0128 69.8302 43.5311C69.8302 41.0267 67.8002 38.9967 65.2958 38.9967C62.7915 38.9967 60.7615 41.0267 60.7615 43.5311C60.7615 45.0131 61.4757 46.3252 62.5752 47.1523V51.6927H59.8545C58.3544 51.6927 57.1338 50.4722 57.1338 48.9721V43.5307C57.1338 39.03 60.7955 35.3687 65.2958 35.3687C69.7962 35.3687 73.4579 39.03 73.4579 43.5307V108.827C73.4579 112.374 71.183 115.398 68.0165 116.521ZM52.5995 87.0614C52.5995 86.0613 53.4133 85.2478 54.4132 85.2478C55.413 85.2478 56.2268 86.0616 56.2268 87.0614C56.2268 88.0616 55.413 88.8751 54.4132 88.8751C53.4133 88.8751 52.5995 88.0616 52.5995 87.0614ZM54.4132 74.3651C55.4133 74.3651 56.2268 75.1789 56.2268 76.1788C56.2268 77.1786 55.413 77.9924 54.4132 77.9924C53.4133 77.9924 52.5995 77.1786 52.5995 76.1788C52.5995 75.1789 53.413 74.3651 54.4132 74.3651ZM54.4132 63.4824C55.4133 63.4824 56.2268 64.2962 56.2268 65.2961C56.2268 66.2959 55.413 67.1097 54.4132 67.1097C53.4133 67.1097 52.5995 66.2959 52.5995 65.2961C52.5995 64.2962 53.413 63.4824 54.4132 63.4824ZM65.2958 45.3444C64.2957 45.3444 63.4822 44.5306 63.4822 43.5307C63.4822 42.5309 64.296 41.717 65.2958 41.717C66.2957 41.717 67.1095 42.5309 67.1095 43.5307C67.1095 44.5306 66.296 45.3444 65.2958 45.3444ZM65.2958 63.4824C66.296 63.4824 67.1095 64.2962 67.1095 65.2961C67.1095 66.2959 66.2957 67.1097 65.2958 67.1097C64.296 67.1097 63.4822 66.2959 63.4822 65.2961C63.4822 64.2962 64.2957 63.4824 65.2958 63.4824ZM111.547 94.7555V92.5028C111.547 88.0021 107.886 84.3408 103.385 84.3408H101.565C100.738 83.2413 99.4256 82.5271 97.9439 82.5271C95.4395 82.5271 93.4095 84.5574 93.4095 87.0614C93.4095 89.5658 95.4395 91.5958 97.9439 91.5958C99.426 91.5958 100.738 90.8816 101.565 89.7821H103.385C104.885 89.7821 106.106 91.0027 106.106 92.5028V97.9441C106.106 101.491 103.831 104.515 100.665 105.638V103.385C100.665 98.8848 97.0029 95.2235 92.5025 95.2235H89.7819V90.6827C90.8814 89.8552 91.5956 88.5432 91.5956 87.0614C91.5956 84.5571 89.5656 82.5271 87.0612 82.5271C84.5568 82.5271 82.5269 84.5574 82.5269 87.0614C82.5269 88.5435 83.241 89.8556 84.3405 90.6827V105.205C83.241 106.033 82.5269 107.345 82.5269 108.827C82.5269 111.331 84.5568 113.361 87.0612 113.361C89.5656 113.361 91.5956 111.331 91.5956 108.827C91.5956 107.345 90.8814 106.033 89.7819 105.205V100.665H92.5025C94.0027 100.665 95.2232 101.885 95.2232 103.385V108.827C95.2232 113.327 91.5615 116.989 87.0612 116.989C82.5609 116.989 78.8992 113.327 78.8992 108.827V43.5307C78.8992 39.984 81.174 36.96 84.3405 35.8367V72.5572C83.241 73.3846 82.5269 74.6967 82.5269 76.1784C82.5269 78.6828 84.5568 80.7128 87.0612 80.7128C89.5656 80.7128 91.5956 78.6825 91.5956 76.1784C91.5956 74.6963 90.8814 73.3843 89.7819 72.5572V56.6658C90.6334 56.9678 91.549 57.1337 92.5025 57.1337C94.0027 57.1337 95.2232 58.3543 95.2232 59.8544V61.6745C94.1237 62.5019 93.4095 63.814 93.4095 65.2957C93.4095 67.8001 95.4395 69.8301 97.9439 69.8301C100.448 69.8301 102.478 67.7998 102.478 65.2957C102.478 63.8137 101.764 62.5016 100.665 61.6745V59.8547C100.665 55.3541 97.0029 51.6927 92.5025 51.6927C91.0024 51.6927 89.7819 50.4722 89.7819 48.9721V35.8367C92.9484 36.9596 95.2232 39.984 95.2232 43.5307V46.2514H97.9439C102.444 46.2514 106.106 49.9127 106.106 54.4134V61.6749C105.006 62.5023 104.292 63.8143 104.292 65.2961C104.292 67.8005 106.322 69.8304 108.827 69.8304C111.331 69.8304 113.361 67.8001 113.361 65.2961C113.361 63.814 112.647 62.502 111.547 61.6749V57.6024C114.714 58.7253 116.989 61.7497 116.989 65.2964V73.4584H101.565C100.738 72.3589 99.4256 71.6448 97.9439 71.6448C95.4395 71.6448 93.4095 73.6747 93.4095 76.1791C93.4095 78.6835 95.4395 80.7134 97.9439 80.7134C99.426 80.7134 100.738 79.9993 101.565 78.8998H116.989V87.0618C116.989 90.6082 114.714 93.6322 111.547 94.7555ZM97.9439 88.8751C96.9437 88.8751 96.1302 88.0613 96.1302 87.0614C96.1302 86.0613 96.944 85.2478 97.9439 85.2478C98.9437 85.2478 99.7576 86.0616 99.7576 87.0614C99.7576 88.0616 98.9441 88.8751 97.9439 88.8751ZM87.0612 107.013C88.0614 107.013 88.8749 107.827 88.8749 108.827C88.8749 109.827 88.0611 110.64 87.0612 110.64C86.0614 110.64 85.2475 109.827 85.2475 108.827C85.2475 107.827 86.061 107.013 87.0612 107.013ZM87.0612 88.8751C86.061 88.8751 85.2475 88.0613 85.2475 87.0614C85.2475 86.0613 86.0614 85.2478 87.0612 85.2478C88.0611 85.2478 88.8749 86.0616 88.8749 87.0614C88.8749 88.0616 88.0614 88.8751 87.0612 88.8751ZM99.7576 65.2961C99.7576 66.2963 98.9437 67.1097 97.9439 67.1097C96.944 67.1097 96.1302 66.2959 96.1302 65.2961C96.1302 64.2962 96.944 63.4824 97.9439 63.4824C98.9437 63.4824 99.7576 64.2959 99.7576 65.2961ZM97.9439 77.9924C96.9437 77.9924 96.1302 77.1786 96.1302 76.1788C96.1302 75.1789 96.944 74.3651 97.9439 74.3651C98.9437 74.3651 99.7576 75.1789 99.7576 76.1788C99.7576 77.1786 98.9441 77.9924 97.9439 77.9924Z" fill="#D7A301"/>
<path d="M40.8097 0C37.8044 0 35.3684 2.43602 35.3684 5.44134V16.324H46.2511V5.44134C46.2511 2.43602 43.8151 0 40.8097 0Z" fill="#463F3D"/>
<path d="M43.5307 2.72064C45.0332 2.72064 46.2514 3.93882 46.2514 5.44131V16.324H40.8101V5.44131C40.8101 3.93882 42.0282 2.72064 43.5307 2.72064Z" fill="#E8383B"/>
<path d="M68.0169 0C65.0116 0 62.5756 2.43602 62.5756 5.44134V16.324H73.4582V5.44134C73.4582 2.43602 71.0222 0 68.0169 0Z" fill="#463F3D"/>
<path d="M70.7378 2.72064C72.2403 2.72064 73.4584 3.93882 73.4584 5.44131V16.324H68.0171V5.44131C68.0171 3.93882 69.2353 2.72064 70.7378 2.72064Z" fill="#E8383B"/>
<path d="M95.2232 0C92.2179 0 89.7819 2.43602 89.7819 5.44134V16.324H100.665V5.44134C100.665 2.43602 98.2285 0 95.2232 0Z" fill="#463F3D"/>
<path d="M97.9439 2.72064C99.4464 2.72064 100.665 3.93882 100.665 5.44131V16.324H95.2233V5.44131C95.2233 3.93882 96.4414 2.72064 97.9439 2.72064Z" fill="#E8383B"/>
<path d="M122.43 0C119.425 0 116.989 2.43602 116.989 5.44134V16.324H127.871V5.44134C127.871 2.43602 125.435 0 122.43 0Z" fill="#463F3D"/>
<path d="M125.151 2.72064C126.653 2.72064 127.872 3.93882 127.872 5.44131V16.324H122.43V5.44131C122.43 3.93882 123.648 2.72064 125.151 2.72064Z" fill="#E8383B"/>
<path d="M40.8097 152.358C37.8044 152.358 35.3684 149.922 35.3684 146.916V136.034H46.2511V146.916C46.2511 149.922 43.8151 152.358 40.8097 152.358Z" fill="#463F3D"/>
<path d="M43.5307 149.637C45.0332 149.637 46.2514 148.419 46.2514 146.916V136.033H40.8101V146.916C40.8101 148.419 42.0282 149.637 43.5307 149.637Z" fill="#E8383B"/>
<path d="M68.0169 152.358C65.0116 152.358 62.5756 149.922 62.5756 146.916V136.034H73.4582V146.916C73.4582 149.922 71.0222 152.358 68.0169 152.358Z" fill="#463F3D"/>
<path d="M70.7378 149.637C72.2403 149.637 73.4584 148.419 73.4584 146.916V136.033H68.0171V146.916C68.0171 148.419 69.2353 149.637 70.7378 149.637Z" fill="#E8383B"/>
<path d="M95.2232 152.358C92.2179 152.358 89.7819 149.922 89.7819 146.916V136.034H100.665V146.916C100.665 149.922 98.2285 152.358 95.2232 152.358Z" fill="#463F3D"/>
<path d="M97.9439 149.637C99.4464 149.637 100.665 148.419 100.665 146.916V136.033H95.2233V146.916C95.2233 148.419 96.4414 149.637 97.9439 149.637Z" fill="#E8383B"/>
<path d="M122.43 152.358C119.425 152.358 116.989 149.922 116.989 146.916V136.034H127.871V146.916C127.871 149.922 125.435 152.358 122.43 152.358Z" fill="#463F3D"/>
<path d="M125.151 149.637C126.653 149.637 127.872 148.419 127.872 146.916V136.033H122.43V146.916C122.43 148.419 123.648 149.637 125.151 149.637Z" fill="#E8383B"/>
<path d="M0 35.3687C0 32.3634 2.43602 29.9274 5.44134 29.9274H16.324V40.81H5.44134C2.43602 40.81 0 38.374 0 35.3687Z" fill="#463F3D"/>
<path d="M2.72009 38.0894C2.72009 39.5919 3.93827 40.8101 5.44076 40.8101H16.3234V35.3688H5.44076C3.93827 35.3688 2.72009 36.587 2.72009 38.0894Z" fill="#E8383B"/>
<path d="M0 62.5754C0 59.5701 2.43602 57.1341 5.44134 57.1341H16.324V68.0167H5.44134C2.43602 68.0167 0 65.5807 0 62.5754Z" fill="#463F3D"/>
<path d="M2.72009 65.2961C2.72009 66.7986 3.93827 68.0168 5.44076 68.0168H16.3234V62.5754H5.44076C3.93827 62.5754 2.72009 63.7936 2.72009 65.2961Z" fill="#E8383B"/>
<path d="M0 89.7822C0 86.7768 2.43602 84.3408 5.44134 84.3408H16.324V95.2235H5.44134C2.43602 95.2235 0 92.7875 0 89.7822Z" fill="#463F3D"/>
<path d="M2.72009 92.5028C2.72009 94.0053 3.93827 95.2234 5.44076 95.2234H16.3234V89.7821H5.44076C3.93827 89.7821 2.72009 91.0003 2.72009 92.5028Z" fill="#E8383B"/>
<path d="M0 116.989C0 113.983 2.43602 111.547 5.44134 111.547H16.324V122.43H5.44134C2.43602 122.43 0 119.994 0 116.989Z" fill="#463F3D"/>
<path d="M2.72009 119.71C2.72009 121.212 3.93827 122.43 5.44076 122.43H16.3234V116.989H5.44076C3.93827 116.989 2.72009 118.207 2.72009 119.71Z" fill="#E8383B"/>
<path d="M163.24 35.3687C163.24 32.3634 160.804 29.9274 157.799 29.9274H146.916V40.81H157.799C160.804 40.81 163.24 38.374 163.24 35.3687Z" fill="#463F3D"/>
<path d="M160.519 38.0894C160.519 39.5919 159.301 40.8101 157.799 40.8101H146.916V35.3688H157.799C159.301 35.3688 160.519 36.587 160.519 38.0894Z" fill="#E8383B"/>
<path d="M163.24 62.5754C163.24 59.5701 160.804 57.1341 157.799 57.1341H146.916V68.0167H157.799C160.804 68.0167 163.24 65.5807 163.24 62.5754Z" fill="#463F3D"/>
<path d="M160.519 65.2961C160.519 66.7986 159.301 68.0168 157.799 68.0168H146.916V62.5754H157.799C159.301 62.5754 160.519 63.7936 160.519 65.2961Z" fill="#E8383B"/>
<path d="M163.24 89.7822C163.24 86.7768 160.804 84.3408 157.799 84.3408H146.916V95.2235H157.799C160.804 95.2235 163.24 92.7875 163.24 89.7822Z" fill="#463F3D"/>
<path d="M160.519 92.5028C160.519 94.0053 159.301 95.2234 157.799 95.2234H146.916V89.7821H157.799C159.301 89.7821 160.519 91.0003 160.519 92.5028Z" fill="#E8383B"/>
<path d="M163.24 116.989C163.24 113.983 160.804 111.547 157.799 111.547H146.916V122.43H157.799C160.804 122.43 163.24 119.994 163.24 116.989Z" fill="#463F3D"/>
<path d="M160.519 119.71C160.519 121.212 159.301 122.43 157.799 122.43H146.916V116.989H157.799C159.301 116.989 160.519 118.207 160.519 119.71Z" fill="#E8383B"/>
</svg>
