<svg width="164" height="166" viewBox="0 0 164 166" fill="none" xmlns="http://www.w3.org/2000/svg">
<path d="M81.6199 119.104C72.2993 119.104 62.9781 115.556 55.8824 108.461C41.6904 94.2688 41.6904 71.1778 55.8824 56.9858C70.0731 42.7951 93.1661 42.7944 107.357 56.9858C121.549 71.1778 121.549 94.2688 107.357 108.461C100.262 115.556 90.9405 119.104 81.6199 119.104ZM81.6199 52.9568C73.9942 52.9568 66.3677 55.8601 60.5619 61.6652C48.9509 73.2763 48.9509 92.1696 60.5619 103.781C72.1742 115.392 91.0662 115.392 102.679 103.781C114.29 92.1703 114.29 73.2769 102.679 61.6652C96.8721 55.8601 89.2457 52.9568 81.6199 52.9568Z" fill="black"/>
<path d="M62.902 152.916L11.427 101.441L100.338 12.5303L151.813 64.0053L62.902 152.916ZM20.786 101.441L62.902 143.557L142.454 64.0053L100.338 21.8893L20.786 101.441Z" fill="black"/>
<path d="M83.9594 99.665C81.4175 99.665 78.8756 98.6974 76.9412 96.7624L81.62 92.0829C82.9092 93.372 85.009 93.3734 86.2995 92.0829L90.979 87.4034C92.2688 86.1136 92.2688 84.0137 90.979 82.7239C90.3543 82.0992 89.5231 81.7544 88.6389 81.7544C87.7548 81.7544 86.9236 82.0992 86.2989 82.7239L81.6207 87.4034C77.7492 91.2755 71.4517 91.2742 67.5816 87.4034C63.7108 83.5326 63.7108 77.235 67.5816 73.3649L72.261 68.6854C76.1312 64.8166 82.4287 64.8153 86.2989 68.6854L81.62 73.3649C80.3309 72.0758 78.231 72.0744 76.9405 73.3649L72.261 78.0444C70.9712 79.3342 70.9712 81.4341 72.261 82.7239C72.8858 83.3486 73.717 83.6934 74.6011 83.6934C75.4853 83.6934 76.3165 83.3486 76.9412 82.7239L81.6194 78.0444C85.4915 74.173 91.789 74.1743 95.6585 78.0444C99.5293 81.9152 99.5293 88.2128 95.6585 92.0829L90.979 96.7624C89.0439 98.6968 86.502 99.665 83.9594 99.665Z" fill="black"/>
<path d="M67.5807 64.0086L62.9012 68.688L67.5807 73.3675L72.2602 68.688L67.5807 64.0086Z" fill="black"/>
<path d="M95.658 92.0868L90.9785 96.7663L95.658 101.446L100.337 96.7663L95.658 92.0868Z" fill="black"/>
<path d="M35.295 52.9429L0 26.4714L35.295 0V13.2357H90.2736L63.8021 39.7072H35.295V52.9429ZM11.0293 26.4714L28.6772 39.7072V33.0893H61.061L74.2967 19.8536H28.6772V13.2357L11.0293 26.4714Z" fill="black"/>
<path d="M11 26.5L28.5 13V20H74L61 33H28.5V39.5L11 26.5Z" fill="#E95947" stroke="black"/>
<path d="M131.254 129.048H100.809L80.955 148.902H131.254V158.829L157.725 138.975L131.254 119.121V129.048Z" fill="#FAC213"/>
<path d="M127.945 165.446V152.211H72.9664L99.4379 125.739H127.945V112.504L163.24 138.975L127.945 165.446ZM88.9433 145.593H134.563V152.211L152.211 138.975L134.563 125.739V132.357H102.179L88.9433 145.593Z" fill="black"/>
</svg>
