<svg width="164" height="131" viewBox="0 0 164 131" fill="none" xmlns="http://www.w3.org/2000/svg">
<path d="M46.9858 103.865C46.9858 92.5776 49.9697 83.4276 53.6501 83.4276C42.3627 83.4276 33.2126 92.5776 33.2126 103.865C33.2126 115.153 42.3627 124.303 53.6501 124.303C49.9688 124.303 46.9858 115.153 46.9858 103.865Z" fill="#FFE9A6"/>
<path d="M53.6494 83.4276C57.3299 83.4276 60.3137 92.5776 60.3137 103.865C60.3137 115.153 57.3299 124.303 53.6494 124.303C64.9369 124.303 74.0869 115.153 74.0869 103.865C74.0869 92.5785 64.9369 83.4276 53.6494 83.4276Z" fill="#D7A301"/>
<path d="M53.6492 124.303C57.3298 124.303 60.3135 115.152 60.3135 103.865C60.3135 92.5778 57.3298 83.4276 53.6492 83.4276C49.9686 83.4276 46.9849 92.5778 46.9849 103.865C46.9849 115.152 49.9686 124.303 53.6492 124.303Z" fill="#FAC213"/>
<path d="M53.6492 126.858C40.9711 126.858 30.657 116.544 30.657 103.866C30.657 91.1879 40.9711 80.8737 53.6492 80.8737C66.3272 80.8737 76.6414 91.1879 76.6414 103.866C76.6414 116.544 66.3272 126.858 53.6492 126.858ZM53.6492 85.9831C43.7889 85.9831 35.7664 94.0057 35.7664 103.866C35.7664 113.726 43.7889 121.749 53.6492 121.749C63.5094 121.749 71.532 113.726 71.532 103.866C71.532 94.0057 63.5094 85.9831 53.6492 85.9831Z" fill="#201D1F"/>
<path d="M128.736 27.2244C128.736 15.937 131.72 6.78695 135.4 6.78695C124.113 6.78695 114.963 15.937 114.963 27.2244C114.963 38.5119 124.113 47.6619 135.4 47.6619C131.719 47.6619 128.736 38.5119 128.736 27.2244Z" fill="#FFE9A6"/>
<path d="M135.399 6.78695C139.08 6.78695 142.064 15.937 142.064 27.2244C142.064 38.5119 139.08 47.6619 135.399 47.6619C146.687 47.6619 155.837 38.5119 155.837 27.2244C155.837 15.937 146.687 6.78695 135.399 6.78695Z" fill="#D7A301"/>
<path d="M135.399 47.6619C139.08 47.6619 142.064 38.5118 142.064 27.2244C142.064 15.9371 139.08 6.78695 135.399 6.78695C131.719 6.78695 128.735 15.9371 128.735 27.2244C128.735 38.5118 131.719 47.6619 135.399 47.6619Z" fill="#FAC213"/>
<path d="M135.399 50.2175C122.721 50.2175 112.407 39.9034 112.407 27.2253C112.407 14.5472 122.721 4.23312 135.399 4.23312C148.077 4.23312 158.392 14.5472 158.392 27.2253C158.392 39.9034 148.077 50.2175 135.399 50.2175ZM135.399 9.34249C125.539 9.34249 117.517 17.3651 117.517 27.2253C117.517 37.0855 125.539 45.1081 135.399 45.1081C145.26 45.1081 153.282 37.0855 153.282 27.2253C153.282 17.3651 145.26 9.34249 135.399 9.34249Z" fill="#201D1F"/>
<path d="M130.362 103L126.584 92.1612L129.797 82.9456L124.561 77.7093L110.11 92.1612L120.948 103L110.11 113.838L124.561 128.29L129.797 123.054L126.584 113.838L130.362 103Z" fill="#EF7F72"/>
<path d="M160.69 92.1612L146.238 77.7093L141.003 82.9456L144.215 92.1612L140.436 103L144.215 113.838L141.003 123.054L146.238 128.29L160.69 113.838L149.851 103L160.69 92.1612Z" fill="#E8383B"/>
<path d="M140.436 103L144.215 92.1612L141.003 82.9456L135.399 88.548L129.797 82.9456L126.584 92.1612L130.362 103L126.584 113.838L129.797 123.054L135.399 117.451L141.003 123.054L144.215 113.838L140.436 103Z" fill="#E95947"/>
<path d="M48.6114 27.8444L44.8338 17.0057L48.0459 7.79009L42.8105 2.55469L28.3586 17.0057L39.1973 27.8444L28.3586 38.6831L42.8105 53.1349L48.0459 47.8987L44.8338 38.6831L48.6114 27.8444Z" fill="#EF7F72"/>
<path d="M78.939 17.0057L64.4871 2.55469L59.2517 7.79009L62.4638 17.0057L58.6863 27.8444L62.4638 38.6831L59.2517 47.8987L64.4871 53.1349L78.939 38.6831L68.1003 27.8444L78.939 17.0057Z" fill="#E8383B"/>
<path d="M58.6861 27.8444L62.4636 17.0057L59.2515 7.79009L53.6483 13.3934L48.0458 7.79009L44.8337 17.0057L48.6113 27.8444L44.8337 38.6831L48.0458 47.8987L53.6483 42.2963L59.2515 47.8987L62.4636 38.6831L58.6861 27.8444Z" fill="#E95947"/>
<path d="M146.238 130.844C145.584 130.844 144.931 130.595 144.432 130.096L135.4 121.064L126.368 130.096C125.37 131.094 123.753 131.094 122.755 130.096L108.303 115.644C107.825 115.165 107.555 114.516 107.555 113.838C107.555 113.16 107.824 112.51 108.303 112.032L117.335 103L108.303 93.9674C107.825 93.4888 107.555 92.8391 107.555 92.1612C107.555 91.4834 107.824 90.8336 108.303 90.3551L122.755 75.904C123.753 74.906 125.37 74.906 126.368 75.904L135.4 84.9357L144.432 75.904C145.43 74.906 147.046 74.906 148.044 75.904L162.496 90.3551C163.494 91.3522 163.494 92.9693 162.496 93.9674L153.464 103L162.496 112.032C163.494 113.029 163.494 114.647 162.496 115.644L148.044 130.096C147.545 130.595 146.891 130.844 146.238 130.844ZM113.722 113.838L124.561 124.677L133.593 115.646C134.591 114.648 136.207 114.648 137.205 115.646L146.237 124.677L157.077 113.838L148.045 104.806C147.047 103.809 147.047 102.192 148.045 101.194L157.077 92.1612L146.237 81.3225L137.205 90.3542C136.207 91.3522 134.591 91.3522 133.593 90.3542L124.561 81.3225L113.722 92.1612L122.754 101.194C123.232 101.672 123.502 102.322 123.502 103C123.502 103.678 123.233 104.327 122.754 104.806L113.722 113.838Z" fill="#201D1F"/>
<path d="M42.8098 55.6888C42.1558 55.6888 41.5026 55.4393 41.0036 54.9403L26.5517 40.4892C25.5537 39.4921 25.5537 37.8741 26.5517 36.8769L35.5834 27.8452L26.5517 18.8127C25.5537 17.8155 25.5537 16.1976 26.5517 15.2004L41.0036 0.748523C42.0016 -0.249508 43.6179 -0.249508 44.6159 0.748523L53.6476 9.78019L62.6801 0.748523C63.6782 -0.249508 65.2944 -0.249508 66.2925 0.748523L80.7443 15.2004C81.2229 15.679 81.4929 16.3287 81.4929 17.0065C81.4929 17.6844 81.2238 18.3341 80.7443 18.8127L71.7127 27.8444L80.7443 36.8761C81.2229 37.3546 81.4929 38.0044 81.4929 38.6822C81.4929 39.3601 81.2238 40.0098 80.7443 40.4884L66.2925 54.9403C65.2944 55.9383 63.6782 55.9383 62.6801 54.9403L53.6476 45.9086L44.6159 54.9403C44.1169 55.4393 43.4629 55.6888 42.8098 55.6888ZM53.6476 39.7416C54.3016 39.7416 54.9548 39.9911 55.4538 40.4901L64.4863 49.5218L75.325 38.6831L66.2933 29.6514C65.8147 29.1728 65.5448 28.5231 65.5448 27.8452C65.5448 27.1674 65.8139 26.5177 66.2933 26.0391L75.325 17.0074L64.4863 6.16787L55.4546 15.1987C54.4566 16.1967 52.8403 16.1967 51.8423 15.1987L42.8098 6.16701L31.9702 17.0065L41.0028 26.0382C42.0008 27.0354 42.0008 28.6534 41.0028 29.6505L31.9702 38.6831L42.8098 49.5226L51.8414 40.4909C52.3405 39.9911 52.9945 39.7416 53.6476 39.7416Z" fill="#201D1F"/>
<path d="M110.702 82.6637C110.081 82.6637 109.458 82.4381 108.967 81.9825L77.2018 52.5389C76.1663 51.58 76.1059 49.9637 77.0647 48.9291C78.0227 47.8944 79.639 47.8314 80.6745 48.792L112.439 78.2356C113.475 79.1945 113.535 80.8107 112.577 81.8454C112.074 82.3887 111.389 82.6637 110.702 82.6637Z" fill="#201D1F"/>
<path d="M33.2109 108.852H28.1016C26.6905 108.852 25.5469 107.708 25.5469 106.297C25.5469 104.886 26.6905 103.742 28.1016 103.742H33.2109C34.622 103.742 35.7656 104.886 35.7656 106.297C35.7656 107.708 34.6228 108.852 33.2109 108.852ZM17.8828 108.852C15.8782 108.852 13.9094 108.521 12.0309 107.872C10.6973 107.409 9.99053 105.955 10.4521 104.622C10.9136 103.289 12.3706 102.582 13.7016 103.043C15.0411 103.507 16.4479 103.742 17.882 103.742C19.293 103.742 20.4366 104.886 20.4366 106.297C20.4366 107.708 19.2947 108.852 17.8828 108.852ZM4.98845 101.809C4.14881 101.809 3.3262 101.396 2.83826 100.638C1.75592 98.9567 0.969927 97.1207 0.500717 95.1825C0.168607 93.8115 1.01251 92.4311 2.38352 92.099C3.76305 91.7661 5.13492 92.6125 5.46703 93.9818C5.80169 95.3639 6.36202 96.6728 7.13439 97.8718C7.89739 99.058 7.55591 100.639 6.36969 101.402C5.94135 101.678 5.46107 101.809 4.98845 101.809ZM2.55469 86.953C1.14365 86.953 0 85.8094 0 84.3984V79.289C0 77.8779 1.14365 76.7343 2.55469 76.7343C3.96573 76.7343 5.10938 77.8779 5.10938 79.289V84.3984C5.10938 85.8094 3.96658 86.953 2.55469 86.953ZM2.55469 71.6249C1.14365 71.6249 0 70.4813 0 69.0702V63.9609C0 62.5498 1.14365 61.4062 2.55469 61.4062C3.96573 61.4062 5.10938 62.5498 5.10938 63.9609V69.0702C5.10938 70.4813 3.96658 71.6249 2.55469 71.6249ZM2.55469 56.2968C1.14365 56.2968 0 55.1531 0 53.7421V48.6327C0 47.2217 1.14365 46.078 2.55469 46.078C3.96573 46.078 5.10938 47.2217 5.10938 48.6327V53.7421C5.10938 55.1531 3.96658 56.2968 2.55469 56.2968ZM2.62707 40.9712C2.54617 40.9712 2.46612 40.9678 2.38437 40.9593C0.980148 40.8273 -0.0519475 39.5815 0.0808962 38.1764C0.26824 36.1863 0.784289 34.2567 1.61456 32.4411C2.20129 31.1587 3.71281 30.5932 5.00122 31.1808C6.28453 31.7675 6.84826 33.2842 6.26154 34.5675C5.6697 35.8619 5.30097 37.238 5.16728 38.6567C5.0421 39.9792 3.92996 40.9712 2.62707 40.9712ZM16.2436 29.7783H11.1342C9.72314 29.7783 8.57949 28.6346 8.57949 27.2236C8.57949 25.8126 9.72314 24.6689 11.1342 24.6689H16.2436C17.6546 24.6689 18.7982 25.8126 18.7982 27.2236C18.7982 28.6346 17.6546 29.7783 16.2436 29.7783Z" fill="#201D1F"/>
<path d="M79.1953 63.4388C77.7843 63.4388 76.6406 62.2952 76.6406 60.8842V50.6654C76.6406 49.2544 77.7843 48.1107 79.1953 48.1107H89.4141C90.8251 48.1107 91.9687 49.2544 91.9687 50.6654C91.9687 52.0764 90.8251 53.2201 89.4141 53.2201H81.75V60.8842C81.75 62.2952 80.6072 63.4388 79.1953 63.4388Z" fill="#201D1F"/>
<path d="M12.7734 37.0029C12.1194 37.0029 11.4663 36.7534 10.9673 36.2544C9.96924 35.2564 9.96924 33.6393 10.9673 32.6421L16.3858 27.2236L10.9673 21.8043C9.96924 20.8071 9.96924 19.1891 10.9673 18.1919C11.9653 17.1939 13.5816 17.1939 14.5796 18.1919L21.8051 25.4174C22.2837 25.896 22.5536 26.5458 22.5536 27.2236C22.5536 27.9014 22.2845 28.5512 21.8051 29.0298L14.5796 36.2544C14.0814 36.7534 13.4274 37.0029 12.7734 37.0029Z" fill="#201D1F"/>
</svg>
