<svg width="16" height="17" viewBox="0 0 16 17" fill="none" xmlns="http://www.w3.org/2000/svg">
<path d="M15.3324 7.34518C15.1553 7.34518 14.9855 7.27484 14.8603 7.14963C14.7351 7.02442 14.6647 6.85461 14.6647 6.67754C14.6633 5.26143 14.1001 3.90372 13.0988 2.90238C12.0975 1.90104 10.7397 1.33786 9.32364 1.33645C9.14657 1.33645 8.97675 1.26611 8.85155 1.1409C8.72634 1.0157 8.656 0.845879 8.656 0.668811C8.656 0.491743 8.72634 0.321927 8.85155 0.196721C8.97675 0.0715149 9.14657 0.00117482 9.32364 0.00117482C11.0937 0.00311871 12.7908 0.707144 14.0424 1.95878C15.294 3.21042 15.9981 4.90745 16 6.67754C16 6.85461 15.9297 7.02442 15.8045 7.14963C15.6792 7.27484 15.5094 7.34518 15.3324 7.34518ZM13.3295 6.67754C13.3295 5.61513 12.9074 4.59623 12.1562 3.845C11.4049 3.09376 10.386 2.67172 9.32364 2.67172C9.14657 2.67172 8.97675 2.74206 8.85155 2.86727C8.72634 2.99247 8.656 3.16229 8.656 3.33936C8.656 3.51643 8.72634 3.68624 8.85155 3.81145C8.97675 3.93665 9.14657 4.00699 9.32364 4.00699C10.0319 4.00699 10.7112 4.28835 11.212 4.78918C11.7128 5.29 11.9942 5.96927 11.9942 6.67754C11.9942 6.85461 12.0645 7.02442 12.1897 7.14963C12.3149 7.27484 12.4847 7.34518 12.6618 7.34518C12.8389 7.34518 13.0087 7.27484 13.1339 7.14963C13.2591 7.02442 13.3295 6.85461 13.3295 6.67754ZM14.7869 14.7987L15.3945 14.0983C15.7812 13.7104 15.9983 13.185 15.9983 12.6372C15.9983 12.0894 15.7812 11.564 15.3945 11.1761C15.3738 11.1554 13.7674 9.91958 13.7674 9.91958C13.3819 9.5526 12.8698 9.34826 12.3375 9.349C11.8053 9.34975 11.2938 9.55553 10.9093 9.92359L9.63676 10.9958C8.59803 10.5659 7.65447 9.93506 6.86025 9.13946C6.06603 8.34387 5.4368 7.39921 5.0087 6.35974L6.07692 5.09124C6.44527 4.70679 6.65129 4.19518 6.65216 3.66276C6.65303 3.13034 6.44868 2.61806 6.08159 2.23242C6.08159 2.23242 4.84446 0.628085 4.82377 0.607389C4.44285 0.223997 3.92638 0.00586297 3.38596 0.000116468C2.84554 -0.00563003 2.32456 0.201473 1.93557 0.576677L1.16779 1.24431C-3.36813 6.50662 6.39939 16.1987 11.8353 16.0245C12.3842 16.0276 12.9282 15.9208 13.4351 15.7103C13.9421 15.4997 14.4017 15.1898 14.7869 14.7987Z" fill="#FAC213"/>
</svg>
