<svg width="16" height="20" viewBox="0 0 16 20" fill="none" xmlns="http://www.w3.org/2000/svg">
<path d="M8 0C5.87898 0.00232928 3.8455 0.845932 2.34572 2.34572C0.845932 3.8455 0.00232928 5.87898 0 8C0 12.2256 6.72 18.0264 7.4832 18.6744L8 19.1112L8.5168 18.6744C9.28 18.0264 16 12.2256 16 8C15.9977 5.87898 15.1541 3.8455 13.6543 2.34572C12.1545 0.845932 10.121 0.00232928 8 0V0ZM8 12C7.20887 12 6.43552 11.7654 5.77772 11.3259C5.11992 10.8864 4.60723 10.2616 4.30448 9.53073C4.00173 8.79983 3.92252 7.99556 4.07686 7.21964C4.2312 6.44372 4.61216 5.73098 5.17157 5.17157C5.73098 4.61216 6.44372 4.2312 7.21964 4.07686C7.99556 3.92252 8.79983 4.00173 9.53073 4.30448C10.2616 4.60723 10.8864 5.11992 11.3259 5.77772C11.7654 6.43552 12 7.20887 12 8C11.9987 9.06048 11.5769 10.0772 10.827 10.827C10.0772 11.5769 9.06048 11.9987 8 12Z" fill="#FAC213"/>
<path d="M8.0001 10.4001C9.32558 10.4001 10.4001 9.32558 10.4001 8.0001C10.4001 6.67461 9.32558 5.6001 8.0001 5.6001C6.67461 5.6001 5.6001 6.67461 5.6001 8.0001C5.6001 9.32558 6.67461 10.4001 8.0001 10.4001Z" fill="#FAC213"/>
</svg>
