<svg width="82" height="62" viewBox="0 0 82 62" fill="none" xmlns="http://www.w3.org/2000/svg">
<path d="M81.3935 -1.1021e-06L81.3935 17.0455C81.3935 22.0762 80.4465 27.3733 78.5526 32.9368C76.6586 38.5002 74.0249 43.8269 70.6513 48.9169C67.2777 54.0069 63.3123 58.357 58.755 61.9673L45.6158 52.5568C49.2261 47.2893 52.3037 41.785 54.8487 36.044C57.3937 30.303 58.6662 24.0589 58.6662 17.3118L58.6662 -3.08898e-06L81.3935 -1.1021e-06ZM36.1165 -5.06034e-06L36.1165 17.0454C36.1165 22.0762 35.1695 27.3733 33.2756 32.9368C31.3816 38.5002 28.7479 43.8269 25.3743 48.9169C22.0007 54.0069 18.0353 58.357 13.478 61.9673L0.338777 52.5568C3.9491 47.2893 7.02675 41.785 9.57173 36.044C12.1167 30.303 13.3892 24.0589 13.3892 17.3118L13.3892 -7.04722e-06L36.1165 -5.06034e-06Z" fill="#FAC213"/>
</svg>
