<svg width="131" height="100" viewBox="0 0 131 100" fill="none" xmlns="http://www.w3.org/2000/svg">
<path d="M72.9432 99.9091L72.9432 72.6364C72.9432 64.5871 74.4583 56.1117 77.4886 47.2102C80.4243 38.4034 84.5909 29.928 89.9886 21.7841C95.3864 13.6402 101.731 6.63259 109.023 0.761372L130.045 15.8182C124.458 23.9621 119.629 32.6269 115.557 41.8125C111.39 50.9981 109.307 61.1307 109.307 72.2102L109.307 99.9091L72.9432 99.9091ZM0.642043 99.9091L0.642045 72.6364C0.642046 64.5871 2.1572 56.1117 5.18751 47.2102C8.12311 38.4034 12.2898 29.928 17.6875 21.7841C23.0852 13.6402 29.4299 6.63258 36.7216 0.761366L57.7443 15.8182C52.1572 23.9621 47.3277 32.6269 43.2557 41.8125C39.089 50.9981 37.0057 61.1307 37.0057 72.2102L37.0057 99.9091L0.642043 99.9091Z" fill="#FAC213"/>
</svg>
